<svg xmlns="http://www.w3.org/2000/svg" viewBox="0 0 960 440" font-family="Helvetica, Arial, sans-serif">
<rect x="42" y="42" width="396" height="306" rx="14" fill="#11151f"/>
<rect x="60" y="60" width="30" height="30" fill="rgb(24,30,44)" stroke="#11151f" stroke-width="1"/>
<rect x="90" y="60" width="30" height="30" fill="rgb(24,30,44)" stroke="#11151f" stroke-width="1"/>
<rect x="120" y="60" width="30" height="30" fill="rgb(24,30,44)" stroke="#11151f" stroke-width="1"/>
<rect x="150" y="60" width="30" height="30" fill="rgb(24,30,44)" stroke="#11151f" stroke-width="1"/>
<rect x="180" y="60" width="30" height="30" fill="rgb(24,30,44)" stroke="#11151f" stroke-width="1"/>
<rect x="210" y="60" width="30" height="30" fill="rgb(24,30,44)" stroke="#11151f" stroke-width="1"/>
<rect x="240" y="60" width="30" height="30" fill="rgb(24,30,44)" stroke="#11151f" stroke-width="1"/>
<rect x="270" y="60" width="30" height="30" fill="rgb(24,30,44)" stroke="#11151f" stroke-width="1"/>
<rect x="300" y="60" width="30" height="30" fill="rgb(24,30,44)" stroke="#11151f" stroke-width="1"/>
<rect x="330" y="60" width="30" height="30" fill="rgb(24,30,44)" stroke="#11151f" stroke-width="1"/>
<rect x="360" y="60" width="30" height="30" fill="rgb(24,30,44)" stroke="#11151f" stroke-width="1"/>
<rect x="390" y="60" width="30" height="30" fill="rgb(24,30,44)" stroke="#11151f" stroke-width="1"/>
<rect x="60" y="90" width="30" height="30" fill="rgb(24,30,44)" stroke="#11151f" stroke-width="1"/>
<rect x="90" y="90" width="30" height="30" fill="rgb(24,30,44)" stroke="#11151f" stroke-width="1"/>
<rect x="120" y="90" width="30" height="30" fill="rgb(24,30,44)" stroke="#11151f" stroke-width="1"/>
<rect x="150" y="90" width="30" height="30" fill="rgb(24,30,44)" stroke="#11151f" stroke-width="1"/>
<rect x="180" y="90" width="30" height="30" fill="rgb(24,30,44)" stroke="#11151f" stroke-width="1"/>
<rect x="210" y="90" width="30" height="30" fill="rgb(141,199,255)" stroke="#11151f" stroke-width="1"/>
<rect x="240" y="90" width="30" height="30" fill="rgb(141,199,255)" stroke="#11151f" stroke-width="1"/>
<rect x="270" y="90" width="30" height="30" fill="rgb(24,30,44)" stroke="#11151f" stroke-width="1"/>
<rect x="300" y="90" width="30" height="30" fill="rgb(24,30,44)" stroke="#11151f" stroke-width="1"/>
<rect x="330" y="90" width="30" height="30" fill="rgb(24,30,44)" stroke="#11151f" stroke-width="1"/>
<rect x="360" y="90" width="30" height="30" fill="rgb(24,30,44)" stroke="#11151f" stroke-width="1"/>
<rect x="390" y="90" width="30" height="30" fill="rgb(24,30,44)" stroke="#11151f" stroke-width="1"/>
<rect x="60" y="120" width="30" height="30" fill="rgb(24,30,44)" stroke="#11151f" stroke-width="1"/>
<rect x="90" y="120" width="30" height="30" fill="rgb(24,30,44)" stroke="#11151f" stroke-width="1"/>
<rect x="120" y="120" width="30" height="30" fill="rgb(24,30,44)" stroke="#11151f" stroke-width="1"/>
<rect x="150" y="120" width="30" height="30" fill="rgb(141,199,255)" stroke="#11151f" stroke-width="1"/>
<rect x="180" y="120" width="30" height="30" fill="rgb(141,199,255)" stroke="#11151f" stroke-width="1"/>
<rect x="210" y="120" width="30" height="30" fill="rgb(141,199,255)" stroke="#11151f" stroke-width="1"/>
<rect x="240" y="120" width="30" height="30" fill="rgb(141,199,255)" stroke="#11151f" stroke-width="1"/>
<rect x="270" y="120" width="30" height="30" fill="rgb(141,199,255)" stroke="#11151f" stroke-width="1"/>
<rect x="300" y="120" width="30" height="30" fill="rgb(141,199,255)" stroke="#11151f" stroke-width="1"/>
<rect x="330" y="120" width="30" height="30" fill="rgb(24,30,44)" stroke="#11151f" stroke-width="1"/>
<rect x="360" y="120" width="30" height="30" fill="rgb(24,30,44)" stroke="#11151f" stroke-width="1"/>
<rect x="390" y="120" width="30" height="30" fill="rgb(24,30,44)" stroke="#11151f" stroke-width="1"/>
<rect x="60" y="150" width="30" height="30" fill="rgb(24,30,44)" stroke="#11151f" stroke-width="1"/>
<rect x="90" y="150" width="30" height="30" fill="rgb(24,30,44)" stroke="#11151f" stroke-width="1"/>
<rect x="120" y="150" width="30" height="30" fill="rgb(141,199,255)" stroke="#11151f" stroke-width="1"/>
<rect x="150" y="150" width="30" height="30" fill="rgb(141,199,255)" stroke="#11151f" stroke-width="1"/>
<rect x="180" y="150" width="30" height="30" fill="rgb(141,199,255)" stroke="#11151f" stroke-width="1"/>
<rect x="210" y="150" width="30" height="30" fill="rgb(141,199,255)" stroke="#11151f" stroke-width="1"/>
<rect x="240" y="150" width="30" height="30" fill="rgb(141,199,255)" stroke="#11151f" stroke-width="1"/>
<rect x="270" y="150" width="30" height="30" fill="rgb(141,199,255)" stroke="#11151f" stroke-width="1"/>
<rect x="300" y="150" width="30" height="30" fill="rgb(141,199,255)" stroke="#11151f" stroke-width="1"/>
<rect x="330" y="150" width="30" height="30" fill="rgb(141,199,255)" stroke="#11151f" stroke-width="1"/>
<rect x="360" y="150" width="30" height="30" fill="rgb(24,30,44)" stroke="#11151f" stroke-width="1"/>
<rect x="390" y="150" width="30" height="30" fill="rgb(24,30,44)" stroke="#11151f" stroke-width="1"/>
<rect x="60" y="180" width="30" height="30" fill="rgb(24,30,44)" stroke="#11151f" stroke-width="1"/>
<rect x="90" y="180" width="30" height="30" fill="rgb(24,30,44)" stroke="#11151f" stroke-width="1"/>
<rect x="120" y="180" width="30" height="30" fill="rgb(64,128,205)" stroke="#11151f" stroke-width="1"/>
<rect x="150" y="180" width="30" height="30" fill="rgb(64,128,205)" stroke="#11151f" stroke-width="1"/>
<rect x="180" y="180" width="30" height="30" fill="rgb(64,128,205)" stroke="#11151f" stroke-width="1"/>
<rect x="210" y="180" width="30" height="30" fill="rgb(141,199,255)" stroke="#11151f" stroke-width="1"/>
<rect x="240" y="180" width="30" height="30" fill="rgb(141,199,255)" stroke="#11151f" stroke-width="1"/>
<rect x="270" y="180" width="30" height="30" fill="rgb(34,78,138)" stroke="#11151f" stroke-width="1"/>
<rect x="300" y="180" width="30" height="30" fill="rgb(34,78,138)" stroke="#11151f" stroke-width="1"/>
<rect x="330" y="180" width="30" height="30" fill="rgb(34,78,138)" stroke="#11151f" stroke-width="1"/>
<rect x="360" y="180" width="30" height="30" fill="rgb(24,30,44)" stroke="#11151f" stroke-width="1"/>
<rect x="390" y="180" width="30" height="30" fill="rgb(24,30,44)" stroke="#11151f" stroke-width="1"/>
<rect x="60" y="210" width="30" height="30" fill="rgb(24,30,44)" stroke="#11151f" stroke-width="1"/>
<rect x="90" y="210" width="30" height="30" fill="rgb(24,30,44)" stroke="#11151f" stroke-width="1"/>
<rect x="120" y="210" width="30" height="30" fill="rgb(64,128,205)" stroke="#11151f" stroke-width="1"/>
<rect x="150" y="210" width="30" height="30" fill="rgb(64,128,205)" stroke="#11151f" stroke-width="1"/>
<rect x="180" y="210" width="30" height="30" fill="rgb(64,128,205)" stroke="#11151f" stroke-width="1"/>
<rect x="210" y="210" width="30" height="30" fill="rgb(64,128,205)" stroke="#11151f" stroke-width="1"/>
<rect x="240" y="210" width="30" height="30" fill="rgb(34,78,138)" stroke="#11151f" stroke-width="1"/>
<rect x="270" y="210" width="30" height="30" fill="rgb(34,78,138)" stroke="#11151f" stroke-width="1"/>
<rect x="300" y="210" width="30" height="30" fill="rgb(34,78,138)" stroke="#11151f" stroke-width="1"/>
<rect x="330" y="210" width="30" height="30" fill="rgb(34,78,138)" stroke="#11151f" stroke-width="1"/>
<rect x="360" y="210" width="30" height="30" fill="rgb(24,30,44)" stroke="#11151f" stroke-width="1"/>
<rect x="390" y="210" width="30" height="30" fill="rgb(24,30,44)" stroke="#11151f" stroke-width="1"/>
<rect x="60" y="240" width="30" height="30" fill="rgb(24,30,44)" stroke="#11151f" stroke-width="1"/>
<rect x="90" y="240" width="30" height="30" fill="rgb(24,30,44)" stroke="#11151f" stroke-width="1"/>
<rect x="120" y="240" width="30" height="30" fill="rgb(64,128,205)" stroke="#11151f" stroke-width="1"/>
<rect x="150" y="240" width="30" height="30" fill="rgb(64,128,205)" stroke="#11151f" stroke-width="1"/>
<rect x="180" y="240" width="30" height="30" fill="rgb(64,128,205)" stroke="#11151f" stroke-width="1"/>
<rect x="210" y="240" width="30" height="30" fill="rgb(64,128,205)" stroke="#11151f" stroke-width="1"/>
<rect x="240" y="240" width="30" height="30" fill="rgb(34,78,138)" stroke="#11151f" stroke-width="1"/>
<rect x="270" y="240" width="30" height="30" fill="rgb(34,78,138)" stroke="#11151f" stroke-width="1"/>
<rect x="300" y="240" width="30" height="30" fill="rgb(34,78,138)" stroke="#11151f" stroke-width="1"/>
<rect x="330" y="240" width="30" height="30" fill="rgb(34,78,138)" stroke="#11151f" stroke-width="1"/>
<rect x="360" y="240" width="30" height="30" fill="rgb(24,30,44)" stroke="#11151f" stroke-width="1"/>
<rect x="390" y="240" width="30" height="30" fill="rgb(24,30,44)" stroke="#11151f" stroke-width="1"/>
<rect x="60" y="270" width="30" height="30" fill="rgb(24,30,44)" stroke="#11151f" stroke-width="1"/>
<rect x="90" y="270" width="30" height="30" fill="rgb(24,30,44)" stroke="#11151f" stroke-width="1"/>
<rect x="120" y="270" width="30" height="30" fill="rgb(24,30,44)" stroke="#11151f" stroke-width="1"/>
<rect x="150" y="270" width="30" height="30" fill="rgb(64,128,205)" stroke="#11151f" stroke-width="1"/>
<rect x="180" y="270" width="30" height="30" fill="rgb(64,128,205)" stroke="#11151f" stroke-width="1"/>
<rect x="210" y="270" width="30" height="30" fill="rgb(64,128,205)" stroke="#11151f" stroke-width="1"/>
<rect x="240" y="270" width="30" height="30" fill="rgb(34,78,138)" stroke="#11151f" stroke-width="1"/>
<rect x="270" y="270" width="30" height="30" fill="rgb(34,78,138)" stroke="#11151f" stroke-width="1"/>
<rect x="300" y="270" width="30" height="30" fill="rgb(34,78,138)" stroke="#11151f" stroke-width="1"/>
<rect x="330" y="270" width="30" height="30" fill="rgb(24,30,44)" stroke="#11151f" stroke-width="1"/>
<rect x="360" y="270" width="30" height="30" fill="rgb(24,30,44)" stroke="#11151f" stroke-width="1"/>
<rect x="390" y="270" width="30" height="30" fill="rgb(24,30,44)" stroke="#11151f" stroke-width="1"/>
<rect x="60" y="300" width="30" height="30" fill="rgb(24,30,44)" stroke="#11151f" stroke-width="1"/>
<rect x="90" y="300" width="30" height="30" fill="rgb(24,30,44)" stroke="#11151f" stroke-width="1"/>
<rect x="120" y="300" width="30" height="30" fill="rgb(24,30,44)" stroke="#11151f" stroke-width="1"/>
<rect x="150" y="300" width="30" height="30" fill="rgb(24,30,44)" stroke="#11151f" stroke-width="1"/>
<rect x="180" y="300" width="30" height="30" fill="rgb(24,30,44)" stroke="#11151f" stroke-width="1"/>
<rect x="210" y="300" width="30" height="30" fill="rgb(24,30,44)" stroke="#11151f" stroke-width="1"/>
<rect x="240" y="300" width="30" height="30" fill="rgb(24,30,44)" stroke="#11151f" stroke-width="1"/>
<rect x="270" y="300" width="30" height="30" fill="rgb(24,30,44)" stroke="#11151f" stroke-width="1"/>
<rect x="300" y="300" width="30" height="30" fill="rgb(24,30,44)" stroke="#11151f" stroke-width="1"/>
<rect x="330" y="300" width="30" height="30" fill="rgb(24,30,44)" stroke="#11151f" stroke-width="1"/>
<rect x="360" y="300" width="30" height="30" fill="rgb(24,30,44)" stroke="#11151f" stroke-width="1"/>
<rect x="390" y="300" width="30" height="30" fill="rgb(24,30,44)" stroke="#11151f" stroke-width="1"/>
<text x="240" y="382" text-anchor="middle" font-size="19" fill="#66708a">a screen: a grid of pixels</text>
<text x="240" y="406" text-anchor="middle" font-size="19" fill="#66708a">(here 12 × 9 — yours is ~1920 × 1080)</text>
<rect x="180" y="150" width="90" height="90" fill="none" stroke="#ffb400" stroke-width="3"/>
<line x1="270" y1="150" x2="560" y2="48" stroke="#ffb400" stroke-width="1.5" stroke-dasharray="5 4"/>
<line x1="270" y1="240" x2="560" y2="312" stroke="#ffb400" stroke-width="1.5" stroke-dasharray="5 4"/>
<rect x="560" y="48" width="88" height="88" fill="rgb(141,199,255)" stroke="#ffb400" stroke-width="1.5"/>
<text x="604" y="98" text-anchor="middle" font-size="17" fill="#11151f">141,199,255</text>
<rect x="648" y="48" width="88" height="88" fill="rgb(141,199,255)" stroke="#ffb400" stroke-width="1.5"/>
<text x="692" y="98" text-anchor="middle" font-size="17" fill="#11151f">141,199,255</text>
<rect x="736" y="48" width="88" height="88" fill="rgb(141,199,255)" stroke="#ffb400" stroke-width="1.5"/>
<text x="780" y="98" text-anchor="middle" font-size="17" fill="#11151f">141,199,255</text>
<rect x="560" y="136" width="88" height="88" fill="rgb(64,128,205)" stroke="#ffb400" stroke-width="1.5"/>
<text x="604" y="186" text-anchor="middle" font-size="17" fill="#11151f">64,128,205</text>
<rect x="648" y="136" width="88" height="88" fill="rgb(141,199,255)" stroke="#ffb400" stroke-width="1.5"/>
<text x="692" y="186" text-anchor="middle" font-size="17" fill="#11151f">141,199,255</text>
<rect x="736" y="136" width="88" height="88" fill="rgb(141,199,255)" stroke="#ffb400" stroke-width="1.5"/>
<text x="780" y="186" text-anchor="middle" font-size="17" fill="#11151f">141,199,255</text>
<rect x="560" y="224" width="88" height="88" fill="rgb(64,128,205)" stroke="#ffb400" stroke-width="1.5"/>
<text x="604" y="274" text-anchor="middle" font-size="17" fill="#11151f">64,128,205</text>
<rect x="648" y="224" width="88" height="88" fill="rgb(64,128,205)" stroke="#ffb400" stroke-width="1.5"/>
<text x="692" y="274" text-anchor="middle" font-size="17" fill="#11151f">64,128,205</text>
<rect x="736" y="224" width="88" height="88" fill="rgb(34,78,138)" stroke="#ffb400" stroke-width="1.5"/>
<text x="780" y="274" text-anchor="middle" font-size="17" fill="#e8ecf5">34,78,138</text>
<text x="692" y="352" text-anchor="middle" font-size="19" fill="#66708a">each pixel = three numbers:</text>
<text x="692" y="376" text-anchor="middle" font-size="19" fill="#66708a">red, green, blue (0–255)</text>
</svg>
