<svg xmlns="http://www.w3.org/2000/svg" viewBox="0 0 960 340" font-family="Helvetica, Arial, sans-serif">
<rect width="960" height="340" fill="#ffffff"/>
<rect x="70" y="40" width="206.4" height="18" rx="4" fill="#8b93a7" fill-opacity="0.28"/>
<text x="64" y="53" fill="#5c6270" font-size="11.5" text-anchor="end">birth</text>
<rect x="276.4" y="66" width="137.6" height="18" rx="4" fill="#c26a4a" fill-opacity="0.28"/>
<text x="270.4" y="79" fill="#5c6270" font-size="11.5" text-anchor="end">Utah</text>
<rect x="356.67" y="92" width="172" height="18" rx="4" fill="#b0813a" fill-opacity="0.28"/>
<text x="350.67" y="105" fill="#5c6270" font-size="11.5" text-anchor="end">photograph</text>
<rect x="414" y="118" width="229.33" height="18" rx="4" fill="#5a8a4a" fill-opacity="0.28"/>
<text x="408" y="131" fill="#5c6270" font-size="11.5" text-anchor="end">raster machines</text>
<rect x="643.33" y="144" width="172" height="18" rx="4" fill="#4a7ab0" fill-opacity="0.28"/>
<text x="637.33" y="157" fill="#5c6270" font-size="11.5" text-anchor="end">programmable</text>
<rect x="528.67" y="170" width="229.33" height="18" rx="4" fill="#7a5ab0" fill-opacity="0.28"/>
<text x="522.67" y="183" fill="#5c6270" font-size="11.5" text-anchor="end">capture &amp; simulate</text>
<rect x="758" y="196" width="91.73" height="18" rx="4" fill="#b05a7a" fill-opacity="0.28"/>
<text x="752" y="209" fill="#5c6270" font-size="11.5" text-anchor="end">real time catches film</text>
<rect x="872.67" y="222" width="57.33" height="18" rx="4" fill="#0a7d5a" fill-opacity="0.28"/>
<text x="866.67" y="235" fill="#5c6270" font-size="11.5" text-anchor="end">neural</text>
<line x1="70" y1="254" x2="930" y2="254" stroke="#5c6270" stroke-width="1.5"/>
<line x1="70" y1="250" x2="70" y2="258" stroke="#5c6270"/>
<text x="70" y="272" fill="#5c6270" font-size="11" text-anchor="middle">1950</text>
<line x1="184.67" y1="250" x2="184.67" y2="258" stroke="#5c6270"/>
<text x="184.67" y="272" fill="#5c6270" font-size="11" text-anchor="middle">1960</text>
<line x1="299.33" y1="250" x2="299.33" y2="258" stroke="#5c6270"/>
<text x="299.33" y="272" fill="#5c6270" font-size="11" text-anchor="middle">1970</text>
<line x1="414" y1="250" x2="414" y2="258" stroke="#5c6270"/>
<text x="414" y="272" fill="#5c6270" font-size="11" text-anchor="middle">1980</text>
<line x1="528.67" y1="250" x2="528.67" y2="258" stroke="#5c6270"/>
<text x="528.67" y="272" fill="#5c6270" font-size="11" text-anchor="middle">1990</text>
<line x1="643.33" y1="250" x2="643.33" y2="258" stroke="#5c6270"/>
<text x="643.33" y="272" fill="#5c6270" font-size="11" text-anchor="middle">2000</text>
<line x1="758" y1="250" x2="758" y2="258" stroke="#5c6270"/>
<text x="758" y="272" fill="#5c6270" font-size="11" text-anchor="middle">2010</text>
<line x1="872.67" y1="250" x2="872.67" y2="258" stroke="#5c6270"/>
<text x="872.67" y="272" fill="#5c6270" font-size="11" text-anchor="middle">2020</text>
<circle cx="219.07" cy="254" r="3.5" fill="#0a7d5a"/>
<line x1="219.07" y1="258" x2="219.07" y2="279" stroke="#0a7d5a" stroke-width="0.75" stroke-opacity="0.5"/>
<text x="219.07" y="288" fill="#1a1c22" font-size="10.5" text-anchor="middle">Sketchpad</text>
<circle cx="310.8" cy="254" r="3.5" fill="#0a7d5a"/>
<line x1="310.8" y1="258" x2="310.8" y2="279" stroke="#0a7d5a" stroke-width="0.75" stroke-opacity="0.5"/>
<text x="310.8" y="288" fill="#1a1c22" font-size="10.5" text-anchor="middle">Gouraud</text>
<circle cx="345.2" cy="254" r="3.5" fill="#0a7d5a"/>
<line x1="345.2" y1="258" x2="345.2" y2="293" stroke="#0a7d5a" stroke-width="0.75" stroke-opacity="0.5"/>
<text x="345.2" y="302" fill="#1a1c22" font-size="10.5" text-anchor="middle">z-buffer</text>
<circle cx="356.67" cy="254" r="3.5" fill="#0a7d5a"/>
<line x1="356.67" y1="258" x2="356.67" y2="307" stroke="#0a7d5a" stroke-width="0.75" stroke-opacity="0.5"/>
<text x="356.67" y="316" fill="#1a1c22" font-size="10.5" text-anchor="middle">teapot</text>
<circle cx="414" cy="254" r="3.5" fill="#0a7d5a"/>
<line x1="414" y1="258" x2="414" y2="279" stroke="#0a7d5a" stroke-width="0.75" stroke-opacity="0.5"/>
<text x="414" y="288" fill="#1a1c22" font-size="10.5" text-anchor="middle">ray tracing</text>
<circle cx="459.87" cy="254" r="3.5" fill="#0a7d5a"/>
<line x1="459.87" y1="258" x2="459.87" y2="293" stroke="#0a7d5a" stroke-width="0.75" stroke-opacity="0.5"/>
<text x="459.87" y="302" fill="#1a1c22" font-size="10.5" text-anchor="middle">Cornell box</text>
<circle cx="494.27" cy="254" r="3.5" fill="#0a7d5a"/>
<line x1="494.27" y1="258" x2="494.27" y2="279" stroke="#0a7d5a" stroke-width="0.75" stroke-opacity="0.5"/>
<text x="494.27" y="288" fill="#1a1c22" font-size="10.5" text-anchor="middle">REYES</text>
<circle cx="551.6" cy="254" r="3.5" fill="#0a7d5a"/>
<line x1="551.6" y1="258" x2="551.6" y2="279" stroke="#0a7d5a" stroke-width="0.75" stroke-opacity="0.5"/>
<text x="551.6" y="288" fill="#1a1c22" font-size="10.5" text-anchor="middle">OpenGL</text>
<circle cx="574.53" cy="254" r="3.5" fill="#0a7d5a"/>
<line x1="574.53" y1="258" x2="574.53" y2="293" stroke="#0a7d5a" stroke-width="0.75" stroke-opacity="0.5"/>
<text x="574.53" y="302" fill="#1a1c22" font-size="10.5" text-anchor="middle">bunny</text>
<circle cx="586" cy="254" r="3.5" fill="#0a7d5a"/>
<line x1="586" y1="258" x2="586" y2="307" stroke="#0a7d5a" stroke-width="0.75" stroke-opacity="0.5"/>
<text x="586" y="316" fill="#1a1c22" font-size="10.5" text-anchor="middle">Toy Story</text>
<circle cx="631.87" cy="254" r="3.5" fill="#0a7d5a"/>
<line x1="631.87" y1="258" x2="631.87" y2="279" stroke="#0a7d5a" stroke-width="0.75" stroke-opacity="0.5"/>
<text x="631.87" y="288" fill="#1a1c22" font-size="10.5" text-anchor="middle">"GPU"</text>
<circle cx="654.8" cy="254" r="3.5" fill="#0a7d5a"/>
<line x1="654.8" y1="258" x2="654.8" y2="293" stroke="#0a7d5a" stroke-width="0.75" stroke-opacity="0.5"/>
<text x="654.8" y="302" fill="#1a1c22" font-size="10.5" text-anchor="middle">shaders</text>
<circle cx="723.6" cy="254" r="3.5" fill="#0a7d5a"/>
<line x1="723.6" y1="258" x2="723.6" y2="279" stroke="#0a7d5a" stroke-width="0.75" stroke-opacity="0.5"/>
<text x="723.6" y="288" fill="#1a1c22" font-size="10.5" text-anchor="middle">CUDA</text>
<circle cx="849.73" cy="254" r="3.5" fill="#0a7d5a"/>
<line x1="849.73" y1="258" x2="849.73" y2="279" stroke="#0a7d5a" stroke-width="0.75" stroke-opacity="0.5"/>
<text x="849.73" y="288" fill="#1a1c22" font-size="10.5" text-anchor="middle">RTX</text>
<circle cx="872.67" cy="254" r="3.5" fill="#0a7d5a"/>
<line x1="872.67" y1="258" x2="872.67" y2="293" stroke="#0a7d5a" stroke-width="0.75" stroke-opacity="0.5"/>
<text x="872.67" y="302" fill="#1a1c22" font-size="10.5" text-anchor="middle">NeRF</text>
<circle cx="907.07" cy="254" r="3.5" fill="#0a7d5a"/>
<line x1="907.07" y1="258" x2="907.07" y2="279" stroke="#0a7d5a" stroke-width="0.75" stroke-opacity="0.5"/>
<text x="907.07" y="288" fill="#1a1c22" font-size="10.5" text-anchor="middle">3DGS</text>
</svg>
