<svg xmlns="http://www.w3.org/2000/svg" viewBox="0 0 1000 470" font-family="Helvetica, Arial, sans-serif">
<polygon points="298.27,270.74 370.54,224.34 370.34,321.67" fill="none" stroke="#c9d2e4" stroke-width="1"/>
<polygon points="370.34,321.67 370.54,224.34 455.99,269.77" fill="none" stroke="#c9d2e4" stroke-width="1"/>
<polygon points="298.27,270.74 284.01,183.81 370.54,224.34" fill="none" stroke="#c9d2e4" stroke-width="1"/>
<polygon points="370.54,224.34 443.55,181.55 455.99,269.77" fill="none" stroke="#c9d2e4" stroke-width="1"/>
<polygon points="370.54,224.34 370.56,129.98 443.55,181.55" fill="none" stroke="#c9d2e4" stroke-width="1"/>
<polygon points="370.54,224.34 284.01,183.81 370.56,129.98" fill="none" stroke="#c9d2e4" stroke-width="1"/>
<polygon points="279.93,349.26 298.27,270.74 370.34,321.67" fill="none" stroke="#c9d2e4" stroke-width="1"/>
<polygon points="370.34,321.67 455.99,269.77 446.51,354.46" fill="none" stroke="#c9d2e4" stroke-width="1"/>
<polygon points="284.01,183.81 298.27,270.74 222.57,259.66" fill="none" stroke="#c9d2e4" stroke-width="1"/>
<polygon points="443.55,181.55 519.28,203.68 455.99,269.77" fill="none" stroke="#c9d2e4" stroke-width="1"/>
<polygon points="463.58,110.54 443.55,181.55 370.56,129.98" fill="none" stroke="#c9d2e4" stroke-width="1"/>
<polygon points="284.01,183.81 291.65,104.3 370.56,129.98" fill="none" stroke="#c9d2e4" stroke-width="1"/>
<polygon points="279.93,349.26 222.57,259.66 298.27,270.74" fill="none" stroke="#c9d2e4" stroke-width="1"/>
<polygon points="370,403.3 370.34,321.67 446.51,354.46" fill="none" stroke="#c9d2e4" stroke-width="1"/>
<polygon points="370,403.3 279.93,349.26 370.34,321.67" fill="none" stroke="#c9d2e4" stroke-width="1"/>
<polygon points="455.99,269.77 523.24,311.49 446.51,354.46" fill="none" stroke="#c9d2e4" stroke-width="1"/>
<polygon points="443.55,181.55 463.58,110.54 519.28,203.68" fill="none" stroke="#c9d2e4" stroke-width="1"/>
<polygon points="455.99,269.77 519.28,203.68 523.24,311.49" fill="none" stroke="#c9d2e4" stroke-width="1"/>
<polygon points="214.25,157.21 284.01,183.81 222.57,259.66" fill="none" stroke="#c9d2e4" stroke-width="1"/>
<polygon points="291.65,104.3 284.01,183.81 214.25,157.21" fill="none" stroke="#c9d2e4" stroke-width="1"/>
<polygon points="370.39,59.17 370.56,129.98 291.65,104.3" fill="none" stroke="#c9d2e4" stroke-width="1"/>
<polygon points="370.39,59.17 463.58,110.54 370.56,129.98" fill="none" stroke="#c9d2e4" stroke-width="1"/>
<polygon points="279.93,349.26 206.28,341.31 222.57,259.66" fill="none" stroke="#c9d2e4" stroke-width="1"/>
<polygon points="470.23,402.7 370,403.3 446.51,354.46" fill="none" stroke="#c9d2e4" stroke-width="1"/>
<polygon points="284.55,410.44 279.93,349.26 370,403.3" fill="none" stroke="#c9d2e4" stroke-width="1"/>
<polygon points="523.24,311.49 470.23,402.7 446.51,354.46" fill="none" stroke="#c9d2e4" stroke-width="1"/>
<polygon points="519.28,203.68 463.58,110.54 538.33,137.87" fill="none" stroke="#c9d2e4" stroke-width="1"/>
<polygon points="519.28,203.68 565.15,241.28 523.24,311.49" fill="none" stroke="#c9d2e4" stroke-width="1"/>
<polygon points="214.25,157.21 222.57,259.66 175.15,240.72" fill="none" stroke="#c9d2e4" stroke-width="1"/>
<polygon points="284.55,410.44 206.28,341.31 279.93,349.26" fill="none" stroke="#c9d2e4" stroke-width="1"/>
<polygon points="291.65,104.3 214.25,157.21 265.47,72.36" fill="none" stroke="#c9d2e4" stroke-width="1"/>
<polygon points="206.28,341.31 175.15,240.72 222.57,259.66" fill="none" stroke="#c9d2e4" stroke-width="1"/>
<polygon points="370.39,59.17 291.65,104.3 265.47,72.36" fill="none" stroke="#c9d2e4" stroke-width="1"/>
<polygon points="459.44,63.64 463.58,110.54 370.39,59.17" fill="none" stroke="#c9d2e4" stroke-width="1"/>
<polygon points="519.28,203.68 538.33,137.87 565.15,241.28" fill="none" stroke="#c9d2e4" stroke-width="1"/>
<polygon points="369.57,441.66 284.55,410.44 370,403.3" fill="none" stroke="#c9d2e4" stroke-width="1"/>
<polygon points="470.23,402.7 369.57,441.66 370,403.3" fill="none" stroke="#c9d2e4" stroke-width="1"/>
<polygon points="463.58,110.54 459.44,63.64 538.33,137.87" fill="none" stroke="#c9d2e4" stroke-width="1"/>
<polygon points="523.24,311.49 546.74,336.08 470.23,402.7" fill="none" stroke="#c9d2e4" stroke-width="1"/>
<polygon points="565.15,241.28 546.74,336.08 523.24,311.49" fill="none" stroke="#c9d2e4" stroke-width="1"/>
<polygon points="214.25,157.21 175.15,240.72 188.95,157.72" fill="rgba(120,150,200,0.10)" stroke="#4a5a78" stroke-width="1.4"/>
<polygon points="265.47,72.36 214.25,157.21 188.95,157.72" fill="rgba(120,150,200,0.10)" stroke="#4a5a78" stroke-width="1.4"/>
<polygon points="206.28,341.31 284.55,410.44 255.48,400.67" fill="rgba(120,150,200,0.10)" stroke="#4a5a78" stroke-width="1.4"/>
<polygon points="370,43.8 370.39,59.17 265.47,72.36" fill="rgba(120,150,200,0.10)" stroke="#4a5a78" stroke-width="1.4"/>
<polygon points="459.44,63.64 370.39,59.17 370,43.8" fill="rgba(120,150,200,0.10)" stroke="#4a5a78" stroke-width="1.4"/>
<polygon points="175.15,240.72 206.28,341.31 182.45,287.89" fill="rgba(120,150,200,0.10)" stroke="#4a5a78" stroke-width="1.4"/>
<polygon points="369.57,441.66 255.48,400.67 284.55,410.44" fill="rgba(120,150,200,0.10)" stroke="#4a5a78" stroke-width="1.4"/>
<polygon points="467.05,410.32 369.57,441.66 470.23,402.7" fill="rgba(120,150,200,0.10)" stroke="#4a5a78" stroke-width="1.4"/>
<polygon points="558.83,217.1 565.15,241.28 538.33,137.87" fill="rgba(120,150,200,0.10)" stroke="#4a5a78" stroke-width="1.4"/>
<polygon points="546.74,336.08 467.05,410.32 470.23,402.7" fill="rgba(120,150,200,0.10)" stroke="#4a5a78" stroke-width="1.4"/>
<polygon points="488.46,98.63 538.33,137.87 459.44,63.64" fill="rgba(120,150,200,0.10)" stroke="#4a5a78" stroke-width="1.4"/>
<polygon points="565.15,241.28 558.83,217.1 546.74,336.08" fill="rgba(120,150,200,0.10)" stroke="#4a5a78" stroke-width="1.4"/>
<polygon points="175.15,240.72 182.45,287.89 188.95,157.72" fill="rgba(120,150,200,0.10)" stroke="#4a5a78" stroke-width="1.4"/>
<polygon points="182.45,287.89 206.28,341.31 255.48,400.67" fill="rgba(120,150,200,0.10)" stroke="#4a5a78" stroke-width="1.4"/>
<polygon points="265.47,72.36 188.95,157.72 268.1,89.88" fill="rgba(120,150,200,0.10)" stroke="#4a5a78" stroke-width="1.4"/>
<polygon points="488.46,98.63 459.44,63.64 370,43.8" fill="rgba(120,150,200,0.10)" stroke="#4a5a78" stroke-width="1.4"/>
<polygon points="370,43.8 265.47,72.36 268.1,89.88" fill="rgba(120,150,200,0.10)" stroke="#4a5a78" stroke-width="1.4"/>
<polygon points="488.46,98.63 558.83,217.1 538.33,137.87" fill="rgba(120,150,200,0.10)" stroke="#4a5a78" stroke-width="1.4"/>
<polygon points="369.57,441.66 369.19,399.69 255.48,400.67" fill="rgba(120,150,200,0.10)" stroke="#4a5a78" stroke-width="1.4"/>
<polygon points="467.05,410.32 369.19,399.69 369.57,441.66" fill="rgba(120,150,200,0.10)" stroke="#4a5a78" stroke-width="1.4"/>
<polygon points="546.74,336.08 495.11,324.21 467.05,410.32" fill="rgba(120,150,200,0.10)" stroke="#4a5a78" stroke-width="1.4"/>
<polygon points="546.74,336.08 558.83,217.1 495.11,324.21" fill="rgba(120,150,200,0.10)" stroke="#4a5a78" stroke-width="1.4"/>
<polygon points="188.95,157.72 182.45,287.89 241.62,198.05" fill="rgba(120,150,200,0.10)" stroke="#4a5a78" stroke-width="1.4"/>
<polygon points="182.45,287.89 255.48,400.67 261.02,329.09" fill="rgba(120,150,200,0.10)" stroke="#4a5a78" stroke-width="1.4"/>
<polygon points="188.95,157.72 241.62,198.05 268.1,89.88" fill="rgba(120,150,200,0.10)" stroke="#4a5a78" stroke-width="1.4"/>
<polygon points="369.48,118.39 488.46,98.63 370,43.8" fill="rgba(120,150,200,0.10)" stroke="#4a5a78" stroke-width="1.4"/>
<polygon points="369.48,118.39 370,43.8 268.1,89.88" fill="rgba(120,150,200,0.10)" stroke="#4a5a78" stroke-width="1.4"/>
<polygon points="479.57,195.58 558.83,217.1 488.46,98.63" fill="rgba(120,150,200,0.10)" stroke="#4a5a78" stroke-width="1.4"/>
<polygon points="369.19,399.69 467.05,410.32 495.11,324.21" fill="rgba(120,150,200,0.10)" stroke="#4a5a78" stroke-width="1.4"/>
<polygon points="369.19,399.69 261.02,329.09 255.48,400.67" fill="rgba(120,150,200,0.10)" stroke="#4a5a78" stroke-width="1.4"/>
<polygon points="182.45,287.89 261.02,329.09 241.62,198.05" fill="rgba(120,150,200,0.10)" stroke="#4a5a78" stroke-width="1.4"/>
<polygon points="558.83,217.1 479.57,195.58 495.11,324.21" fill="rgba(120,150,200,0.10)" stroke="#4a5a78" stroke-width="1.4"/>
<polygon points="241.62,198.05 369.48,118.39 268.1,89.88" fill="rgba(120,150,200,0.10)" stroke="#4a5a78" stroke-width="1.4"/>
<polygon points="479.57,195.58 488.46,98.63 369.48,118.39" fill="rgba(120,150,200,0.10)" stroke="#4a5a78" stroke-width="1.4"/>
<polygon points="369.13,267.99 369.19,399.69 495.11,324.21" fill="rgba(0,180,110,0.35)" stroke="#00b46e" stroke-width="2.5"/>
<polygon points="261.02,329.09 369.19,399.69 369.13,267.99" fill="rgba(120,150,200,0.10)" stroke="#4a5a78" stroke-width="1.4"/>
<polygon points="261.02,329.09 369.13,267.99 241.62,198.05" fill="rgba(120,150,200,0.10)" stroke="#4a5a78" stroke-width="1.4"/>
<polygon points="369.13,267.99 495.11,324.21 479.57,195.58" fill="rgba(120,150,200,0.10)" stroke="#4a5a78" stroke-width="1.4"/>
<polygon points="241.62,198.05 369.13,267.99 369.48,118.39" fill="rgba(120,150,200,0.10)" stroke="#4a5a78" stroke-width="1.4"/>
<polygon points="369.13,267.99 479.57,195.58 369.48,118.39" fill="rgba(120,150,200,0.10)" stroke="#4a5a78" stroke-width="1.4"/>
<circle cx="241.62" cy="198.05" r="4" fill="#1c2530"/>
<circle cx="369.48" cy="118.39" r="4" fill="#1c2530"/>
<circle cx="268.1" cy="89.88" r="4" fill="#1c2530"/>
<circle cx="369.13" cy="267.99" r="4" fill="#1c2530"/>
<circle cx="261.02" cy="329.09" r="4" fill="#1c2530"/>
<circle cx="479.57" cy="195.58" r="4" fill="#1c2530"/>
<circle cx="370" cy="43.8" r="4" fill="#1c2530"/>
<circle cx="488.46" cy="98.63" r="4" fill="#1c2530"/>
<circle cx="459.44" cy="63.64" r="4" fill="#1c2530"/>
<circle cx="265.47" cy="72.36" r="4" fill="#1c2530"/>
<circle cx="188.95" cy="157.72" r="4" fill="#1c2530"/>
<circle cx="182.45" cy="287.89" r="4" fill="#1c2530"/>
<circle cx="538.33" cy="137.87" r="4" fill="#1c2530"/>
<circle cx="558.83" cy="217.1" r="4" fill="#1c2530"/>
<circle cx="495.11" cy="324.21" r="4" fill="#1c2530"/>
<circle cx="369.19" cy="399.69" r="4" fill="#1c2530"/>
<circle cx="467.05" cy="410.32" r="4" fill="#1c2530"/>
<circle cx="255.48" cy="400.67" r="4" fill="#1c2530"/>
<circle cx="546.74" cy="336.08" r="4" fill="#1c2530"/>
<circle cx="369.57" cy="441.66" r="4" fill="#1c2530"/>
<line x1="370" y1="43.8" x2="620" y2="86" stroke="#1c2530" stroke-width="1.5"/>
<text x="630" y="80" font-size="21" fill="#1c2530">vertex — one position (x, y, z),</text>
<text x="630" y="106" font-size="21" fill="#1c2530">stored once, shared by 5–6 triangles</text>
<line x1="411.15" y1="330.63" x2="620" y2="300" stroke="#00b46e" stroke-width="1.5"/>
<text x="630" y="294" font-size="21" fill="#00875a">triangle — three indices</text>
<text x="630" y="320" font-size="21" fill="#00875a">pointing into the vertex array</text>
<text x="370" y="456" text-anchor="middle" font-size="20" fill="#66708a">42 vertices + 80 index triples = one sphere</text>
</svg>
