<svg xmlns="http://www.w3.org/2000/svg" viewBox="0 0 640 230" width="640" height="230" font-family="system-ui, -apple-system, Segoe UI, sans-serif" font-size="12" fill="#1a1c22">
<rect width="640" height="230" fill="#ffffff"/>
<line x1="50" y1="30" x2="50" y2="190" stroke="#eceff4"/><line x1="190" y1="30" x2="190" y2="190" stroke="#eceff4"/><line x1="330" y1="30" x2="330" y2="190" stroke="#eceff4"/><line x1="470" y1="30" x2="470" y2="190" stroke="#eceff4"/><line x1="610" y1="30" x2="610" y2="190" stroke="#eceff4"/><line x1="50" y1="176.67" x2="610" y2="176.67" stroke="#eceff4"/><line x1="50" y1="110" x2="610" y2="110" stroke="#eceff4"/><line x1="50" y1="43.33" x2="610" y2="43.33" stroke="#eceff4"/><rect x="50" y="30" width="560" height="160" fill="none" stroke="#d7dbe3"/><text x="50" y="205" text-anchor="middle" fill="#5c6270" font-size="11">0</text><text x="190" y="205" text-anchor="middle" fill="#5c6270" font-size="11">0.5</text><text x="330" y="205" text-anchor="middle" fill="#5c6270" font-size="11">1</text><text x="470" y="205" text-anchor="middle" fill="#5c6270" font-size="11">1.5</text><text x="610" y="205" text-anchor="middle" fill="#5c6270" font-size="11">2</text><text x="44" y="180.67" text-anchor="end" fill="#5c6270" font-size="11">-1</text><text x="44" y="114" text-anchor="end" fill="#5c6270" font-size="11">0</text><text x="44" y="47.33" text-anchor="end" fill="#5c6270" font-size="11">1</text><text x="330" y="222" text-anchor="middle" fill="#5c6270">x</text><text x="50" y="22" font-weight="600" font-size="13">a 4.5 Hz sine sampled at 6 samples per unit looks like 1.5 Hz</text><polyline fill="none" stroke="#8a8f9a"  stroke-linejoin="round" stroke-width="1" points="50,110 50.56,106.23 51.12,102.48 51.68,98.74 52.24,95.05 52.8,91.4 53.36,87.81 53.92,84.29 54.48,80.86 55.04,77.52 55.6,74.28 56.16,71.15 56.72,68.15 57.28,65.29 57.84,62.56 58.4,59.99 58.96,57.58 59.52,55.34 60.08,53.27 60.64,51.38 61.2,49.68 61.76,48.17 62.32,46.86 62.88,45.75 63.44,44.85 64,44.15 64.56,43.67 65.12,43.4 65.68,43.34 66.24,43.49 66.8,43.86 67.36,44.44 67.92,45.22 68.48,46.22 69.04,47.42 69.6,48.82 70.16,50.41 70.72,52.2 71.28,54.16 71.84,56.31 72.4,58.63 72.96,61.12 73.52,63.76 74.08,66.54 74.64,69.47 75.2,72.53 75.76,75.7 76.32,78.99 76.88,82.37 77.44,85.85 78,89.4 78.56,93.02 79.12,96.69 79.68,100.4 80.24,104.14 80.8,107.91 81.36,111.68 81.92,115.44 82.48,119.19 83.04,122.9 83.6,126.58 84.16,130.2 84.72,133.76 85.28,137.24 85.84,140.64 86.4,143.94 86.96,147.13 87.52,150.2 88.08,153.14 88.64,155.94 89.2,158.6 89.76,161.1 90.32,163.44 90.88,165.61 91.44,167.59 92,169.4 92.56,171.02 93.12,172.44 93.68,173.66 94.24,174.68 94.8,175.49 95.36,176.09 95.92,176.48 96.48,176.65 97.04,176.62 97.6,176.37 98.16,175.91 98.72,175.24 99.28,174.36 99.84,173.27 100.4,171.99 100.96,170.5 101.52,168.82 102.08,166.95 102.64,164.9 103.2,162.68 103.76,160.28 104.32,157.73 104.88,155.02 105.44,152.17 106,149.19 106.56,146.07 107.12,142.85 107.68,139.52 108.24,136.09 108.8,132.58 109.36,129 109.92,125.36 110.48,121.67 111.04,117.94 111.6,114.19 112.16,110.42 112.72,106.65 113.28,102.89 113.84,99.16 114.4,95.46 114.96,91.8 115.52,88.21 116.08,84.68 116.64,81.24 117.2,77.88 117.76,74.63 118.32,71.5 118.88,68.48 119.44,65.6 120,62.86 120.56,60.27 121.12,57.84 121.68,55.58 122.24,53.49 122.8,51.58 123.36,49.86 123.92,48.33 124.48,47 125.04,45.86 125.6,44.94 126.16,44.22 126.72,43.71 127.28,43.42 127.84,43.33 128.4,43.46 128.96,43.81 129.52,44.36 130.08,45.13 130.64,46.1 131.2,47.27 131.76,48.65 132.32,50.22 132.88,51.99 133.44,53.94 134,56.07 134.56,58.37 135.12,60.83 135.68,63.46 136.24,66.23 136.8,69.14 137.36,72.18 137.92,75.35 138.48,78.62 139.04,81.99 139.6,85.46 140.16,89 140.72,92.61 141.28,96.28 141.84,99.98 142.4,103.73 142.96,107.49 143.52,111.26 144.08,115.02 144.64,118.77 145.2,122.49 145.76,126.17 146.32,129.8 146.88,133.37 147.44,136.86 148,140.27 148.56,143.57 149.12,146.78 149.68,149.86 150.24,152.82 150.8,155.64 151.36,158.31 151.92,160.83 152.48,163.19 153.04,165.37 153.6,167.38 154.16,169.21 154.72,170.85 155.28,172.29 155.84,173.53 156.4,174.57 156.96,175.41 157.52,176.03 158.08,176.44 158.64,176.65 159.2,176.63 159.76,176.41 160.32,175.97 160.88,175.32 161.44,174.47 162,173.4 162.56,172.14 163.12,170.67 163.68,169.02 164.24,167.17 164.8,165.14 165.36,162.93 165.92,160.56 166.48,158.02 167.04,155.33 167.6,152.49 168.16,149.52 168.72,146.43 169.28,143.21 169.84,139.89 170.4,136.48 170.96,132.98 171.52,129.4 172.08,125.77 172.64,122.08 173.2,118.36 173.76,114.6 174.32,110.84 174.88,107.07 175.44,103.31 176,99.57 176.56,95.87 177.12,92.21 177.68,88.6 178.24,85.07 178.8,81.61 179.36,78.25 179.92,74.99 180.48,71.84 181.04,68.81 181.6,65.91 182.16,63.16 182.72,60.55 183.28,58.1 183.84,55.82 184.4,53.71 184.96,51.78 185.52,50.04 186.08,48.49 186.64,47.13 187.2,45.98 187.76,45.03 188.32,44.29 188.88,43.76 189.44,43.44 190,43.33 190.56,43.44 191.12,43.76 191.68,44.29 192.24,45.03 192.8,45.98 193.36,47.13 193.92,48.49 194.48,50.04 195.04,51.78 195.6,53.71 196.16,55.82 196.72,58.1 197.28,60.55 197.84,63.16 198.4,65.91 198.96,68.81 199.52,71.84 200.08,74.99 200.64,78.25 201.2,81.61 201.76,85.07 202.32,88.6 202.88,92.21 203.44,95.87 204,99.57 204.56,103.31 205.12,107.07 205.68,110.84 206.24,114.6 206.8,118.36 207.36,122.08 207.92,125.77 208.48,129.4 209.04,132.98 209.6,136.48 210.16,139.89 210.72,143.21 211.28,146.43 211.84,149.52 212.4,152.49 212.96,155.33 213.52,158.02 214.08,160.56 214.64,162.93 215.2,165.14 215.76,167.17 216.32,169.02 216.88,170.67 217.44,172.14 218,173.4 218.56,174.47 219.12,175.32 219.68,175.97 220.24,176.41 220.8,176.63 221.36,176.65 221.92,176.44 222.48,176.03 223.04,175.41 223.6,174.57 224.16,173.53 224.72,172.29 225.28,170.85 225.84,169.21 226.4,167.38 226.96,165.37 227.52,163.19 228.08,160.83 228.64,158.31 229.2,155.64 229.76,152.82 230.32,149.86 230.88,146.78 231.44,143.57 232,140.27 232.56,136.86 233.12,133.37 233.68,129.8 234.24,126.17 234.8,122.49 235.36,118.77 235.92,115.02 236.48,111.26 237.04,107.49 237.6,103.73 238.16,99.98 238.72,96.28 239.28,92.61 239.84,89 240.4,85.46 240.96,81.99 241.52,78.62 242.08,75.35 242.64,72.18 243.2,69.14 243.76,66.23 244.32,63.46 244.88,60.83 245.44,58.37 246,56.07 246.56,53.94 247.12,51.99 247.68,50.22 248.24,48.65 248.8,47.27 249.36,46.1 249.92,45.13 250.48,44.36 251.04,43.81 251.6,43.46 252.16,43.33 252.72,43.42 253.28,43.71 253.84,44.22 254.4,44.94 254.96,45.86 255.52,47 256.08,48.33 256.64,49.86 257.2,51.58 257.76,53.49 258.32,55.58 258.88,57.84 259.44,60.27 260,62.86 260.56,65.6 261.12,68.48 261.68,71.5 262.24,74.63 262.8,77.88 263.36,81.24 263.92,84.68 264.48,88.21 265.04,91.8 265.6,95.46 266.16,99.16 266.72,102.89 267.28,106.65 267.84,110.42 268.4,114.19 268.96,117.94 269.52,121.67 270.08,125.36 270.64,129 271.2,132.58 271.76,136.09 272.32,139.52 272.88,142.85 273.44,146.07 274,149.19 274.56,152.17 275.12,155.02 275.68,157.73 276.24,160.28 276.8,162.68 277.36,164.9 277.92,166.95 278.48,168.82 279.04,170.5 279.6,171.99 280.16,173.27 280.72,174.36 281.28,175.24 281.84,175.91 282.4,176.37 282.96,176.62 283.52,176.65 284.08,176.48 284.64,176.09 285.2,175.49 285.76,174.68 286.32,173.66 286.88,172.44 287.44,171.02 288,169.4 288.56,167.59 289.12,165.61 289.68,163.44 290.24,161.1 290.8,158.6 291.36,155.94 291.92,153.14 292.48,150.2 293.04,147.13 293.6,143.94 294.16,140.64 294.72,137.24 295.28,133.76 295.84,130.2 296.4,126.58 296.96,122.9 297.52,119.19 298.08,115.44 298.64,111.68 299.2,107.91 299.76,104.14 300.32,100.4 300.88,96.69 301.44,93.02 302,89.4 302.56,85.85 303.12,82.37 303.68,78.99 304.24,75.7 304.8,72.53 305.36,69.47 305.92,66.54 306.48,63.76 307.04,61.12 307.6,58.63 308.16,56.31 308.72,54.16 309.28,52.2 309.84,50.41 310.4,48.82 310.96,47.42 311.52,46.22 312.08,45.22 312.64,44.44 313.2,43.86 313.76,43.49 314.32,43.34 314.88,43.4 315.44,43.67 316,44.15 316.56,44.85 317.12,45.75 317.68,46.86 318.24,48.17 318.8,49.68 319.36,51.38 319.92,53.27 320.48,55.34 321.04,57.58 321.6,59.99 322.16,62.56 322.72,65.29 323.28,68.15 323.84,71.15 324.4,74.28 324.96,77.52 325.52,80.86 326.08,84.29 326.64,87.81 327.2,91.4 327.76,95.05 328.32,98.74 328.88,102.48 329.44,106.23 330,110 330.56,113.77 331.12,117.52 331.68,121.26 332.24,124.95 332.8,128.6 333.36,132.19 333.92,135.71 334.48,139.14 335.04,142.48 335.6,145.72 336.16,148.85 336.72,151.85 337.28,154.71 337.84,157.44 338.4,160.01 338.96,162.42 339.52,164.66 340.08,166.73 340.64,168.62 341.2,170.32 341.76,171.83 342.32,173.14 342.88,174.25 343.44,175.15 344,175.85 344.56,176.33 345.12,176.6 345.68,176.66 346.24,176.51 346.8,176.14 347.36,175.56 347.92,174.78 348.48,173.78 349.04,172.58 349.6,171.18 350.16,169.59 350.72,167.8 351.28,165.84 351.84,163.69 352.4,161.37 352.96,158.88 353.52,156.24 354.08,153.46 354.64,150.53 355.2,147.47 355.76,144.3 356.32,141.01 356.88,137.63 357.44,134.15 358,130.6 358.56,126.98 359.12,123.31 359.68,119.6 360.24,115.86 360.8,112.09 361.36,108.32 361.92,104.56 362.48,100.81 363.04,97.1 363.6,93.42 364.16,89.8 364.72,86.24 365.28,82.76 365.84,79.36 366.4,76.06 366.96,72.87 367.52,69.8 368.08,66.86 368.64,64.06 369.2,61.4 369.76,58.9 370.32,56.56 370.88,54.39 371.44,52.41 372,50.6 372.56,48.98 373.12,47.56 373.68,46.34 374.24,45.32 374.8,44.51 375.36,43.91 375.92,43.52 376.48,43.35 377.04,43.38 377.6,43.63 378.16,44.09 378.72,44.76 379.28,45.64 379.84,46.73 380.4,48.01 380.96,49.5 381.52,51.18 382.08,53.05 382.64,55.1 383.2,57.32 383.76,59.72 384.32,62.27 384.88,64.98 385.44,67.83 386,70.81 386.56,73.93 387.12,77.15 387.68,80.48 388.24,83.91 388.8,87.42 389.36,91 389.92,94.64 390.48,98.33 391.04,102.06 391.6,105.81 392.16,109.58 392.72,113.35 393.28,117.11 393.84,120.84 394.4,124.54 394.96,128.2 395.52,131.79 396.08,135.32 396.64,138.76 397.2,142.12 397.76,145.37 398.32,148.5 398.88,151.52 399.44,154.4 400,157.14 400.56,159.73 401.12,162.16 401.68,164.42 402.24,166.51 402.8,168.42 403.36,170.14 403.92,171.67 404.48,173 405.04,174.14 405.6,175.06 406.16,175.78 406.72,176.29 407.28,176.58 407.84,176.67 408.4,176.54 408.96,176.19 409.52,175.64 410.08,174.87 410.64,173.9 411.2,172.73 411.76,171.35 412.32,169.78 412.88,168.01 413.44,166.06 414,163.93 414.56,161.63 415.12,159.17 415.68,156.54 416.24,153.77 416.8,150.86 417.36,147.82 417.92,144.65 418.48,141.38 419.04,138.01 419.6,134.54 420.16,131 420.72,127.39 421.28,123.72 421.84,120.02 422.4,116.27 422.96,112.51 423.52,108.74 424.08,104.98 424.64,101.23 425.2,97.51 425.76,93.83 426.32,90.2 426.88,86.63 427.44,83.14 428,79.73 428.56,76.43 429.12,73.22 429.68,70.14 430.24,67.18 430.8,64.36 431.36,61.69 431.92,59.17 432.48,56.81 433.04,54.63 433.6,52.62 434.16,50.79 434.72,49.15 435.28,47.71 435.84,46.47 436.4,45.43 436.96,44.59 437.52,43.97 438.08,43.56 438.64,43.35 439.2,43.37 439.76,43.59 440.32,44.03 440.88,44.68 441.44,45.53 442,46.6 442.56,47.86 443.12,49.33 443.68,50.98 444.24,52.83 444.8,54.86 445.36,57.07 445.92,59.44 446.48,61.98 447.04,64.67 447.6,67.51 448.16,70.48 448.72,73.57 449.28,76.79 449.84,80.11 450.4,83.52 450.96,87.02 451.52,90.6 452.08,94.23 452.64,97.92 453.2,101.64 453.76,105.4 454.32,109.16 454.88,112.93 455.44,116.69 456,120.43 456.56,124.13 457.12,127.79 457.68,131.4 458.24,134.93 458.8,138.39 459.36,141.75 459.92,145.01 460.48,148.16 461.04,151.19 461.6,154.09 462.16,156.84 462.72,159.45 463.28,161.9 463.84,164.18 464.4,166.29 464.96,168.22 465.52,169.96 466.08,171.51 466.64,172.87 467.2,174.02 467.76,174.97 468.32,175.71 468.88,176.24 469.44,176.56 470,176.67 470.56,176.56 471.12,176.24 471.68,175.71 472.24,174.97 472.8,174.02 473.36,172.87 473.92,171.51 474.48,169.96 475.04,168.22 475.6,166.29 476.16,164.18 476.72,161.9 477.28,159.45 477.84,156.84 478.4,154.09 478.96,151.19 479.52,148.16 480.08,145.01 480.64,141.75 481.2,138.39 481.76,134.93 482.32,131.4 482.88,127.79 483.44,124.13 484,120.43 484.56,116.69 485.12,112.93 485.68,109.16 486.24,105.4 486.8,101.64 487.36,97.92 487.92,94.23 488.48,90.6 489.04,87.02 489.6,83.52 490.16,80.11 490.72,76.79 491.28,73.57 491.84,70.48 492.4,67.51 492.96,64.67 493.52,61.98 494.08,59.44 494.64,57.07 495.2,54.86 495.76,52.83 496.32,50.98 496.88,49.33 497.44,47.86 498,46.6 498.56,45.53 499.12,44.68 499.68,44.03 500.24,43.59 500.8,43.37 501.36,43.35 501.92,43.56 502.48,43.97 503.04,44.59 503.6,45.43 504.16,46.47 504.72,47.71 505.28,49.15 505.84,50.79 506.4,52.62 506.96,54.63 507.52,56.81 508.08,59.17 508.64,61.69 509.2,64.36 509.76,67.18 510.32,70.14 510.88,73.22 511.44,76.43 512,79.73 512.56,83.14 513.12,86.63 513.68,90.2 514.24,93.83 514.8,97.51 515.36,101.23 515.92,104.98 516.48,108.74 517.04,112.51 517.6,116.27 518.16,120.02 518.72,123.72 519.28,127.39 519.84,131 520.4,134.54 520.96,138.01 521.52,141.38 522.08,144.65 522.64,147.82 523.2,150.86 523.76,153.77 524.32,156.54 524.88,159.17 525.44,161.63 526,163.93 526.56,166.06 527.12,168.01 527.68,169.78 528.24,171.35 528.8,172.73 529.36,173.9 529.92,174.87 530.48,175.64 531.04,176.19 531.6,176.54 532.16,176.67 532.72,176.58 533.28,176.29 533.84,175.78 534.4,175.06 534.96,174.14 535.52,173 536.08,171.67 536.64,170.14 537.2,168.42 537.76,166.51 538.32,164.42 538.88,162.16 539.44,159.73 540,157.14 540.56,154.4 541.12,151.52 541.68,148.5 542.24,145.37 542.8,142.12 543.36,138.76 543.92,135.32 544.48,131.79 545.04,128.2 545.6,124.54 546.16,120.84 546.72,117.11 547.28,113.35 547.84,109.58 548.4,105.81 548.96,102.06 549.52,98.33 550.08,94.64 550.64,91 551.2,87.42 551.76,83.91 552.32,80.48 552.88,77.15 553.44,73.93 554,70.81 554.56,67.83 555.12,64.98 555.68,62.27 556.24,59.72 556.8,57.32 557.36,55.1 557.92,53.05 558.48,51.18 559.04,49.5 559.6,48.01 560.16,46.73 560.72,45.64 561.28,44.76 561.84,44.09 562.4,43.63 562.96,43.38 563.52,43.35 564.08,43.52 564.64,43.91 565.2,44.51 565.76,45.32 566.32,46.34 566.88,47.56 567.44,48.98 568,50.6 568.56,52.41 569.12,54.39 569.68,56.56 570.24,58.9 570.8,61.4 571.36,64.06 571.92,66.86 572.48,69.8 573.04,72.87 573.6,76.06 574.16,79.36 574.72,82.76 575.28,86.24 575.84,89.8 576.4,93.42 576.96,97.1 577.52,100.81 578.08,104.56 578.64,108.32 579.2,112.09 579.76,115.86 580.32,119.6 580.88,123.31 581.44,126.98 582,130.6 582.56,134.15 583.12,137.63 583.68,141.01 584.24,144.3 584.8,147.47 585.36,150.53 585.92,153.46 586.48,156.24 587.04,158.88 587.6,161.37 588.16,163.69 588.72,165.84 589.28,167.8 589.84,169.59 590.4,171.18 590.96,172.58 591.52,173.78 592.08,174.78 592.64,175.56 593.2,176.14 593.76,176.51 594.32,176.66 594.88,176.6 595.44,176.33 596,175.85 596.56,175.15 597.12,174.25 597.68,173.14 598.24,171.83 598.8,170.32 599.36,168.62 599.92,166.73 600.48,164.66 601.04,162.42 601.6,160.01 602.16,157.44 602.72,154.71 603.28,151.85 603.84,148.85 604.4,145.72 604.96,142.48 605.52,139.14 606.08,135.71 606.64,132.19 607.2,128.6 607.76,124.95 608.32,121.26 608.88,117.52 609.44,113.77"/><polyline fill="none" stroke="#c0392b"  stroke-linejoin="round" stroke-width="2" points="50,110 50.56,111.26 51.12,112.51 51.68,113.77 52.24,115.02 52.8,116.27 53.36,117.52 53.92,118.77 54.48,120.02 55.04,121.26 55.6,122.49 56.16,123.72 56.72,124.95 57.28,126.17 57.84,127.39 58.4,128.6 58.96,129.8 59.52,131 60.08,132.19 60.64,133.37 61.2,134.54 61.76,135.71 62.32,136.86 62.88,138.01 63.44,139.14 64,140.27 64.56,141.38 65.12,142.48 65.68,143.57 66.24,144.65 66.8,145.72 67.36,146.78 67.92,147.82 68.48,148.85 69.04,149.86 69.6,150.86 70.16,151.85 70.72,152.82 71.28,153.77 71.84,154.71 72.4,155.64 72.96,156.54 73.52,157.44 74.08,158.31 74.64,159.17 75.2,160.01 75.76,160.83 76.32,161.63 76.88,162.42 77.44,163.19 78,163.93 78.56,164.66 79.12,165.37 79.68,166.06 80.24,166.73 80.8,167.38 81.36,168.01 81.92,168.62 82.48,169.21 83.04,169.78 83.6,170.32 84.16,170.85 84.72,171.35 85.28,171.83 85.84,172.29 86.4,172.73 86.96,173.14 87.52,173.53 88.08,173.9 88.64,174.25 89.2,174.57 89.76,174.87 90.32,175.15 90.88,175.41 91.44,175.64 92,175.85 92.56,176.03 93.12,176.19 93.68,176.33 94.24,176.44 94.8,176.54 95.36,176.6 95.92,176.65 96.48,176.67 97.04,176.66 97.6,176.63 98.16,176.58 98.72,176.51 99.28,176.41 99.84,176.29 100.4,176.14 100.96,175.97 101.52,175.78 102.08,175.56 102.64,175.32 103.2,175.06 103.76,174.78 104.32,174.47 104.88,174.14 105.44,173.78 106,173.4 106.56,173 107.12,172.58 107.68,172.14 108.24,171.67 108.8,171.18 109.36,170.67 109.92,170.14 110.48,169.59 111.04,169.02 111.6,168.42 112.16,167.8 112.72,167.17 113.28,166.51 113.84,165.84 114.4,165.14 114.96,164.42 115.52,163.69 116.08,162.93 116.64,162.16 117.2,161.37 117.76,160.56 118.32,159.73 118.88,158.88 119.44,158.02 120,157.14 120.56,156.24 121.12,155.33 121.68,154.4 122.24,153.46 122.8,152.49 123.36,151.52 123.92,150.53 124.48,149.52 125.04,148.5 125.6,147.47 126.16,146.43 126.72,145.37 127.28,144.3 127.84,143.21 128.4,142.12 128.96,141.01 129.52,139.89 130.08,138.76 130.64,137.63 131.2,136.48 131.76,135.32 132.32,134.15 132.88,132.98 133.44,131.79 134,130.6 134.56,129.4 135.12,128.2 135.68,126.98 136.24,125.77 136.8,124.54 137.36,123.31 137.92,122.08 138.48,120.84 139.04,119.6 139.6,118.36 140.16,117.11 140.72,115.86 141.28,114.6 141.84,113.35 142.4,112.09 142.96,110.84 143.52,109.58 144.08,108.32 144.64,107.07 145.2,105.81 145.76,104.56 146.32,103.31 146.88,102.06 147.44,100.81 148,99.57 148.56,98.33 149.12,97.1 149.68,95.87 150.24,94.64 150.8,93.42 151.36,92.21 151.92,91 152.48,89.8 153.04,88.6 153.6,87.42 154.16,86.24 154.72,85.07 155.28,83.91 155.84,82.76 156.4,81.61 156.96,80.48 157.52,79.36 158.08,78.25 158.64,77.15 159.2,76.06 159.76,74.99 160.32,73.93 160.88,72.87 161.44,71.84 162,70.81 162.56,69.8 163.12,68.81 163.68,67.83 164.24,66.86 164.8,65.91 165.36,64.98 165.92,64.06 166.48,63.16 167.04,62.27 167.6,61.4 168.16,60.55 168.72,59.72 169.28,58.9 169.84,58.1 170.4,57.32 170.96,56.56 171.52,55.82 172.08,55.1 172.64,54.39 173.2,53.71 173.76,53.05 174.32,52.41 174.88,51.78 175.44,51.18 176,50.6 176.56,50.04 177.12,49.5 177.68,48.98 178.24,48.49 178.8,48.01 179.36,47.56 179.92,47.13 180.48,46.73 181.04,46.34 181.6,45.98 182.16,45.64 182.72,45.32 183.28,45.03 183.84,44.76 184.4,44.51 184.96,44.29 185.52,44.09 186.08,43.91 186.64,43.76 187.2,43.63 187.76,43.52 188.32,43.44 188.88,43.38 189.44,43.35 190,43.33 190.56,43.35 191.12,43.38 191.68,43.44 192.24,43.52 192.8,43.63 193.36,43.76 193.92,43.91 194.48,44.09 195.04,44.29 195.6,44.51 196.16,44.76 196.72,45.03 197.28,45.32 197.84,45.64 198.4,45.98 198.96,46.34 199.52,46.73 200.08,47.13 200.64,47.56 201.2,48.01 201.76,48.49 202.32,48.98 202.88,49.5 203.44,50.04 204,50.6 204.56,51.18 205.12,51.78 205.68,52.41 206.24,53.05 206.8,53.71 207.36,54.39 207.92,55.1 208.48,55.82 209.04,56.56 209.6,57.32 210.16,58.1 210.72,58.9 211.28,59.72 211.84,60.55 212.4,61.4 212.96,62.27 213.52,63.16 214.08,64.06 214.64,64.98 215.2,65.91 215.76,66.86 216.32,67.83 216.88,68.81 217.44,69.8 218,70.81 218.56,71.84 219.12,72.87 219.68,73.93 220.24,74.99 220.8,76.06 221.36,77.15 221.92,78.25 222.48,79.36 223.04,80.48 223.6,81.61 224.16,82.76 224.72,83.91 225.28,85.07 225.84,86.24 226.4,87.42 226.96,88.6 227.52,89.8 228.08,91 228.64,92.21 229.2,93.42 229.76,94.64 230.32,95.87 230.88,97.1 231.44,98.33 232,99.57 232.56,100.81 233.12,102.06 233.68,103.31 234.24,104.56 234.8,105.81 235.36,107.07 235.92,108.32 236.48,109.58 237.04,110.84 237.6,112.09 238.16,113.35 238.72,114.6 239.28,115.86 239.84,117.11 240.4,118.36 240.96,119.6 241.52,120.84 242.08,122.08 242.64,123.31 243.2,124.54 243.76,125.77 244.32,126.98 244.88,128.2 245.44,129.4 246,130.6 246.56,131.79 247.12,132.98 247.68,134.15 248.24,135.32 248.8,136.48 249.36,137.63 249.92,138.76 250.48,139.89 251.04,141.01 251.6,142.12 252.16,143.21 252.72,144.3 253.28,145.37 253.84,146.43 254.4,147.47 254.96,148.5 255.52,149.52 256.08,150.53 256.64,151.52 257.2,152.49 257.76,153.46 258.32,154.4 258.88,155.33 259.44,156.24 260,157.14 260.56,158.02 261.12,158.88 261.68,159.73 262.24,160.56 262.8,161.37 263.36,162.16 263.92,162.93 264.48,163.69 265.04,164.42 265.6,165.14 266.16,165.84 266.72,166.51 267.28,167.17 267.84,167.8 268.4,168.42 268.96,169.02 269.52,169.59 270.08,170.14 270.64,170.67 271.2,171.18 271.76,171.67 272.32,172.14 272.88,172.58 273.44,173 274,173.4 274.56,173.78 275.12,174.14 275.68,174.47 276.24,174.78 276.8,175.06 277.36,175.32 277.92,175.56 278.48,175.78 279.04,175.97 279.6,176.14 280.16,176.29 280.72,176.41 281.28,176.51 281.84,176.58 282.4,176.63 282.96,176.66 283.52,176.67 284.08,176.65 284.64,176.6 285.2,176.54 285.76,176.44 286.32,176.33 286.88,176.19 287.44,176.03 288,175.85 288.56,175.64 289.12,175.41 289.68,175.15 290.24,174.87 290.8,174.57 291.36,174.25 291.92,173.9 292.48,173.53 293.04,173.14 293.6,172.73 294.16,172.29 294.72,171.83 295.28,171.35 295.84,170.85 296.4,170.32 296.96,169.78 297.52,169.21 298.08,168.62 298.64,168.01 299.2,167.38 299.76,166.73 300.32,166.06 300.88,165.37 301.44,164.66 302,163.93 302.56,163.19 303.12,162.42 303.68,161.63 304.24,160.83 304.8,160.01 305.36,159.17 305.92,158.31 306.48,157.44 307.04,156.54 307.6,155.64 308.16,154.71 308.72,153.77 309.28,152.82 309.84,151.85 310.4,150.86 310.96,149.86 311.52,148.85 312.08,147.82 312.64,146.78 313.2,145.72 313.76,144.65 314.32,143.57 314.88,142.48 315.44,141.38 316,140.27 316.56,139.14 317.12,138.01 317.68,136.86 318.24,135.71 318.8,134.54 319.36,133.37 319.92,132.19 320.48,131 321.04,129.8 321.6,128.6 322.16,127.39 322.72,126.17 323.28,124.95 323.84,123.72 324.4,122.49 324.96,121.26 325.52,120.02 326.08,118.77 326.64,117.52 327.2,116.27 327.76,115.02 328.32,113.77 328.88,112.51 329.44,111.26 330,110 330.56,108.74 331.12,107.49 331.68,106.23 332.24,104.98 332.8,103.73 333.36,102.48 333.92,101.23 334.48,99.98 335.04,98.74 335.6,97.51 336.16,96.28 336.72,95.05 337.28,93.83 337.84,92.61 338.4,91.4 338.96,90.2 339.52,89 340.08,87.81 340.64,86.63 341.2,85.46 341.76,84.29 342.32,83.14 342.88,81.99 343.44,80.86 344,79.73 344.56,78.62 345.12,77.52 345.68,76.43 346.24,75.35 346.8,74.28 347.36,73.22 347.92,72.18 348.48,71.15 349.04,70.14 349.6,69.14 350.16,68.15 350.72,67.18 351.28,66.23 351.84,65.29 352.4,64.36 352.96,63.46 353.52,62.56 354.08,61.69 354.64,60.83 355.2,59.99 355.76,59.17 356.32,58.37 356.88,57.58 357.44,56.81 358,56.07 358.56,55.34 359.12,54.63 359.68,53.94 360.24,53.27 360.8,52.62 361.36,51.99 361.92,51.38 362.48,50.79 363.04,50.22 363.6,49.68 364.16,49.15 364.72,48.65 365.28,48.17 365.84,47.71 366.4,47.27 366.96,46.86 367.52,46.47 368.08,46.1 368.64,45.75 369.2,45.43 369.76,45.13 370.32,44.85 370.88,44.59 371.44,44.36 372,44.15 372.56,43.97 373.12,43.81 373.68,43.67 374.24,43.56 374.8,43.46 375.36,43.4 375.92,43.35 376.48,43.33 377.04,43.34 377.6,43.37 378.16,43.42 378.72,43.49 379.28,43.59 379.84,43.71 380.4,43.86 380.96,44.03 381.52,44.22 382.08,44.44 382.64,44.68 383.2,44.94 383.76,45.22 384.32,45.53 384.88,45.86 385.44,46.22 386,46.6 386.56,47 387.12,47.42 387.68,47.86 388.24,48.33 388.8,48.82 389.36,49.33 389.92,49.86 390.48,50.41 391.04,50.98 391.6,51.58 392.16,52.2 392.72,52.83 393.28,53.49 393.84,54.16 394.4,54.86 394.96,55.58 395.52,56.31 396.08,57.07 396.64,57.84 397.2,58.63 397.76,59.44 398.32,60.27 398.88,61.12 399.44,61.98 400,62.86 400.56,63.76 401.12,64.67 401.68,65.6 402.24,66.54 402.8,67.51 403.36,68.48 403.92,69.47 404.48,70.48 405.04,71.5 405.6,72.53 406.16,73.57 406.72,74.63 407.28,75.7 407.84,76.79 408.4,77.88 408.96,78.99 409.52,80.11 410.08,81.24 410.64,82.37 411.2,83.52 411.76,84.68 412.32,85.85 412.88,87.02 413.44,88.21 414,89.4 414.56,90.6 415.12,91.8 415.68,93.02 416.24,94.23 416.8,95.46 417.36,96.69 417.92,97.92 418.48,99.16 419.04,100.4 419.6,101.64 420.16,102.89 420.72,104.14 421.28,105.4 421.84,106.65 422.4,107.91 422.96,109.16 423.52,110.42 424.08,111.68 424.64,112.93 425.2,114.19 425.76,115.44 426.32,116.69 426.88,117.94 427.44,119.19 428,120.43 428.56,121.67 429.12,122.9 429.68,124.13 430.24,125.36 430.8,126.58 431.36,127.79 431.92,129 432.48,130.2 433.04,131.4 433.6,132.58 434.16,133.76 434.72,134.93 435.28,136.09 435.84,137.24 436.4,138.39 436.96,139.52 437.52,140.64 438.08,141.75 438.64,142.85 439.2,143.94 439.76,145.01 440.32,146.07 440.88,147.13 441.44,148.16 442,149.19 442.56,150.2 443.12,151.19 443.68,152.17 444.24,153.14 444.8,154.09 445.36,155.02 445.92,155.94 446.48,156.84 447.04,157.73 447.6,158.6 448.16,159.45 448.72,160.28 449.28,161.1 449.84,161.9 450.4,162.68 450.96,163.44 451.52,164.18 452.08,164.9 452.64,165.61 453.2,166.29 453.76,166.95 454.32,167.59 454.88,168.22 455.44,168.82 456,169.4 456.56,169.96 457.12,170.5 457.68,171.02 458.24,171.51 458.8,171.99 459.36,172.44 459.92,172.87 460.48,173.27 461.04,173.66 461.6,174.02 462.16,174.36 462.72,174.68 463.28,174.97 463.84,175.24 464.4,175.49 464.96,175.71 465.52,175.91 466.08,176.09 466.64,176.24 467.2,176.37 467.76,176.48 468.32,176.56 468.88,176.62 469.44,176.65 470,176.67 470.56,176.65 471.12,176.62 471.68,176.56 472.24,176.48 472.8,176.37 473.36,176.24 473.92,176.09 474.48,175.91 475.04,175.71 475.6,175.49 476.16,175.24 476.72,174.97 477.28,174.68 477.84,174.36 478.4,174.02 478.96,173.66 479.52,173.27 480.08,172.87 480.64,172.44 481.2,171.99 481.76,171.51 482.32,171.02 482.88,170.5 483.44,169.96 484,169.4 484.56,168.82 485.12,168.22 485.68,167.59 486.24,166.95 486.8,166.29 487.36,165.61 487.92,164.9 488.48,164.18 489.04,163.44 489.6,162.68 490.16,161.9 490.72,161.1 491.28,160.28 491.84,159.45 492.4,158.6 492.96,157.73 493.52,156.84 494.08,155.94 494.64,155.02 495.2,154.09 495.76,153.14 496.32,152.17 496.88,151.19 497.44,150.2 498,149.19 498.56,148.16 499.12,147.13 499.68,146.07 500.24,145.01 500.8,143.94 501.36,142.85 501.92,141.75 502.48,140.64 503.04,139.52 503.6,138.39 504.16,137.24 504.72,136.09 505.28,134.93 505.84,133.76 506.4,132.58 506.96,131.4 507.52,130.2 508.08,129 508.64,127.79 509.2,126.58 509.76,125.36 510.32,124.13 510.88,122.9 511.44,121.67 512,120.43 512.56,119.19 513.12,117.94 513.68,116.69 514.24,115.44 514.8,114.19 515.36,112.93 515.92,111.68 516.48,110.42 517.04,109.16 517.6,107.91 518.16,106.65 518.72,105.4 519.28,104.14 519.84,102.89 520.4,101.64 520.96,100.4 521.52,99.16 522.08,97.92 522.64,96.69 523.2,95.46 523.76,94.23 524.32,93.02 524.88,91.8 525.44,90.6 526,89.4 526.56,88.21 527.12,87.02 527.68,85.85 528.24,84.68 528.8,83.52 529.36,82.37 529.92,81.24 530.48,80.11 531.04,78.99 531.6,77.88 532.16,76.79 532.72,75.7 533.28,74.63 533.84,73.57 534.4,72.53 534.96,71.5 535.52,70.48 536.08,69.47 536.64,68.48 537.2,67.51 537.76,66.54 538.32,65.6 538.88,64.67 539.44,63.76 540,62.86 540.56,61.98 541.12,61.12 541.68,60.27 542.24,59.44 542.8,58.63 543.36,57.84 543.92,57.07 544.48,56.31 545.04,55.58 545.6,54.86 546.16,54.16 546.72,53.49 547.28,52.83 547.84,52.2 548.4,51.58 548.96,50.98 549.52,50.41 550.08,49.86 550.64,49.33 551.2,48.82 551.76,48.33 552.32,47.86 552.88,47.42 553.44,47 554,46.6 554.56,46.22 555.12,45.86 555.68,45.53 556.24,45.22 556.8,44.94 557.36,44.68 557.92,44.44 558.48,44.22 559.04,44.03 559.6,43.86 560.16,43.71 560.72,43.59 561.28,43.49 561.84,43.42 562.4,43.37 562.96,43.34 563.52,43.33 564.08,43.35 564.64,43.4 565.2,43.46 565.76,43.56 566.32,43.67 566.88,43.81 567.44,43.97 568,44.15 568.56,44.36 569.12,44.59 569.68,44.85 570.24,45.13 570.8,45.43 571.36,45.75 571.92,46.1 572.48,46.47 573.04,46.86 573.6,47.27 574.16,47.71 574.72,48.17 575.28,48.65 575.84,49.15 576.4,49.68 576.96,50.22 577.52,50.79 578.08,51.38 578.64,51.99 579.2,52.62 579.76,53.27 580.32,53.94 580.88,54.63 581.44,55.34 582,56.07 582.56,56.81 583.12,57.58 583.68,58.37 584.24,59.17 584.8,59.99 585.36,60.83 585.92,61.69 586.48,62.56 587.04,63.46 587.6,64.36 588.16,65.29 588.72,66.23 589.28,67.18 589.84,68.15 590.4,69.14 590.96,70.14 591.52,71.15 592.08,72.18 592.64,73.22 593.2,74.28 593.76,75.35 594.32,76.43 594.88,77.52 595.44,78.62 596,79.73 596.56,80.86 597.12,81.99 597.68,83.14 598.24,84.29 598.8,85.46 599.36,86.63 599.92,87.81 600.48,89 601.04,90.2 601.6,91.4 602.16,92.61 602.72,93.83 603.28,95.05 603.84,96.28 604.4,97.51 604.96,98.74 605.52,99.98 606.08,101.23 606.64,102.48 607.2,103.73 607.76,104.98 608.32,106.23 608.88,107.49 609.44,108.74"/><circle cx="50" cy="110" r="3.5" fill="#1a1c22" /><circle cx="96.67" cy="176.67" r="3.5" fill="#1a1c22" /><circle cx="143.33" cy="110" r="3.5" fill="#1a1c22" /><circle cx="190" cy="43.33" r="3.5" fill="#1a1c22" /><circle cx="236.67" cy="110" r="3.5" fill="#1a1c22" /><circle cx="283.33" cy="176.67" r="3.5" fill="#1a1c22" /><circle cx="330" cy="110" r="3.5" fill="#1a1c22" /><circle cx="376.67" cy="43.33" r="3.5" fill="#1a1c22" /><circle cx="423.33" cy="110" r="3.5" fill="#1a1c22" /><circle cx="470" cy="176.67" r="3.5" fill="#1a1c22" /><circle cx="516.67" cy="110" r="3.5" fill="#1a1c22" /><circle cx="563.33" cy="43.33" r="3.5" fill="#1a1c22" /><circle cx="610" cy="110" r="3.5" fill="#1a1c22" /><line x1="510" y1="45" x2="528" y2="45" stroke="#8a8f9a" stroke-width="2.2"/><text x="534" y="49" font-size="11.5">signal, 4.5 Hz</text><line x1="510" y1="61" x2="528" y2="61" stroke="#c0392b" stroke-width="2.2"/><text x="534" y="65" font-size="11.5">alias, 1.5 Hz</text>
</svg>
