<svg xmlns="http://www.w3.org/2000/svg" viewBox="0 0 640 290" width="640" height="290" font-family="system-ui, -apple-system, Segoe UI, sans-serif" font-size="12" fill="#1a1c22">
<rect width="640" height="290" fill="#ffffff"/>
<rect x="40" y="30" width="240" height="240" fill="none" stroke="#d7dbe3"/><text x="40" y="285" text-anchor="middle" fill="#5c6270" font-size="11">0</text><text x="160" y="285" text-anchor="middle" fill="#5c6270" font-size="11">0.5</text><text x="280" y="285" text-anchor="middle" fill="#5c6270" font-size="11">1</text><text x="34" y="274" text-anchor="end" fill="#5c6270" font-size="11">0</text><text x="34" y="154" text-anchor="end" fill="#5c6270" font-size="11">0.5</text><text x="34" y="34" text-anchor="end" fill="#5c6270" font-size="11">1</text><text x="40" y="22" font-weight="600" font-size="13">16 random samples</text><polyline fill="none" stroke="#c0392b"  stroke-linejoin="round" stroke-width="2" points="40,186 280,114"/><circle cx="87.69" cy="65.71" r="4" fill="#1f5fb0" /><circle cx="74.02" cy="72.8" r="4" fill="#1f5fb0" /><circle cx="213.71" cy="104.67" r="4" fill="#1f5fb0" /><circle cx="103.05" cy="49.33" r="4" fill="#1f5fb0" /><circle cx="71.41" cy="118.25" r="4" fill="#1f5fb0" /><circle cx="207.52" cy="129.05" r="4" fill="#1f5fb0" /><circle cx="108.02" cy="44.92" r="4" fill="#1f5fb0" /><circle cx="108.89" cy="94.73" r="4" fill="#1f5fb0" /><circle cx="194.07" cy="181.94" r="4" fill="#8a8f9a" /><circle cx="168.53" cy="54.61" r="4" fill="#1f5fb0" /><circle cx="247.73" cy="160.72" r="4" fill="#8a8f9a" /><circle cx="249.69" cy="224.44" r="4" fill="#8a8f9a" /><circle cx="202.55" cy="189.95" r="4" fill="#8a8f9a" /><circle cx="51.54" cy="59.69" r="4" fill="#1f5fb0" /><circle cx="89.09" cy="143.67" r="4" fill="#1f5fb0" /><circle cx="158.58" cy="252.06" r="4" fill="#8a8f9a" /><rect x="360" y="30" width="240" height="240" fill="none" stroke="#d7dbe3"/><text x="360" y="285" text-anchor="middle" fill="#5c6270" font-size="11">0</text><text x="480" y="285" text-anchor="middle" fill="#5c6270" font-size="11">0.5</text><text x="600" y="285" text-anchor="middle" fill="#5c6270" font-size="11">1</text><text x="354" y="274" text-anchor="end" fill="#5c6270" font-size="11">0</text><text x="354" y="154" text-anchor="end" fill="#5c6270" font-size="11">0.5</text><text x="354" y="34" text-anchor="end" fill="#5c6270" font-size="11">1</text><text x="360" y="22" font-weight="600" font-size="13">16 stratified (jittered) samples</text><line x1="420" y1="30" x2="420" y2="270" stroke="#eceff4" /><line x1="360" y1="210" x2="600" y2="210" stroke="#eceff4" /><line x1="480" y1="30" x2="480" y2="270" stroke="#eceff4" /><line x1="360" y1="150" x2="600" y2="150" stroke="#eceff4" /><line x1="540" y1="30" x2="540" y2="270" stroke="#eceff4" /><line x1="360" y1="90" x2="600" y2="90" stroke="#eceff4" /><polyline fill="none" stroke="#c0392b"  stroke-linejoin="round" stroke-width="2" points="360,186 600,114"/><circle cx="371.92" cy="218.93" r="4" fill="#8a8f9a" /><circle cx="368.51" cy="160.7" r="4" fill="#1f5fb0" /><circle cx="403.43" cy="108.67" r="4" fill="#1f5fb0" /><circle cx="375.76" cy="34.83" r="4" fill="#1f5fb0" /><circle cx="427.85" cy="232.06" r="4" fill="#8a8f9a" /><circle cx="461.88" cy="174.76" r="4" fill="#8a8f9a" /><circle cx="437.01" cy="93.73" r="4" fill="#1f5fb0" /><circle cx="437.22" cy="46.18" r="4" fill="#1f5fb0" /><circle cx="518.52" cy="247.98" r="4" fill="#8a8f9a" /><circle cx="512.13" cy="156.15" r="4" fill="#8a8f9a" /><circle cx="531.93" cy="122.68" r="4" fill="#1f5fb0" /><circle cx="532.42" cy="78.61" r="4" fill="#1f5fb0" /><circle cx="580.64" cy="249.99" r="4" fill="#8a8f9a" /><circle cx="542.89" cy="157.42" r="4" fill="#8a8f9a" /><circle cx="552.27" cy="118.42" r="4" fill="#1f5fb0" /><circle cx="569.65" cy="85.52" r="4" fill="#1f5fb0" />
</svg>
