<svg xmlns="http://www.w3.org/2000/svg" viewBox="0 0 660 340" width="660" height="340" font-family="system-ui, -apple-system, Segoe UI, sans-serif" font-size="12" fill="#1a1c22">
<rect width="660" height="340" fill="#ffffff"/>
<line x1="230" y1="34" x2="230" y2="306" stroke="#eceff4"/><text x="230" y="322" text-anchor="middle" font-size="11" fill="#5c6270">1960</text><line x1="291.54" y1="34" x2="291.54" y2="306" stroke="#eceff4"/><text x="291.54" y="322" text-anchor="middle" font-size="11" fill="#5c6270">1970</text><line x1="353.08" y1="34" x2="353.08" y2="306" stroke="#eceff4"/><text x="353.08" y="322" text-anchor="middle" font-size="11" fill="#5c6270">1980</text><line x1="414.62" y1="34" x2="414.62" y2="306" stroke="#eceff4"/><text x="414.62" y="322" text-anchor="middle" font-size="11" fill="#5c6270">1990</text><line x1="476.15" y1="34" x2="476.15" y2="306" stroke="#eceff4"/><text x="476.15" y="322" text-anchor="middle" font-size="11" fill="#5c6270">2000</text><line x1="537.69" y1="34" x2="537.69" y2="306" stroke="#eceff4"/><text x="537.69" y="322" text-anchor="middle" font-size="11" fill="#5c6270">2010</text><line x1="599.23" y1="34" x2="599.23" y2="306" stroke="#eceff4"/><text x="599.23" y="322" text-anchor="middle" font-size="11" fill="#5c6270">2020</text><text x="220" y="52" text-anchor="end" font-size="12">head-mounted display</text><line x1="279.23" y1="48" x2="574.62" y2="48" stroke="#1f5fb0" stroke-width="3" stroke-linecap="round"/><circle cx="279.23" cy="48" r="4" fill="#1a1c22"/><circle cx="574.62" cy="48" r="4" fill="#0a7d5a"/><text x="582.62" y="52" font-size="11" fill="#0a7d5a" font-weight="600">48 y</text><text x="220" y="78" text-anchor="end" font-size="12">z-buffer</text><line x1="316.15" y1="74" x2="451.54" y2="74" stroke="#1f5fb0" stroke-width="3" stroke-linecap="round"/><circle cx="316.15" cy="74" r="4" fill="#1a1c22"/><circle cx="451.54" cy="74" r="4" fill="#0a7d5a"/><text x="459.54" y="78" font-size="11" fill="#0a7d5a" font-weight="600">22 y</text><text x="220" y="104" text-anchor="end" font-size="12">texture mapping</text><line x1="316.15" y1="100" x2="451.54" y2="100" stroke="#1f5fb0" stroke-width="3" stroke-linecap="round"/><circle cx="316.15" cy="100" r="4" fill="#1a1c22"/><circle cx="451.54" cy="100" r="4" fill="#0a7d5a"/><text x="459.54" y="104" font-size="11" fill="#0a7d5a" font-weight="600">22 y</text><text x="220" y="130" text-anchor="end" font-size="12">bump mapping</text><line x1="340.77" y1="126" x2="500.77" y2="126" stroke="#1f5fb0" stroke-width="3" stroke-linecap="round"/><circle cx="340.77" cy="126" r="4" fill="#1a1c22"/><circle cx="500.77" cy="126" r="4" fill="#0a7d5a"/><text x="508.77" y="130" font-size="11" fill="#0a7d5a" font-weight="600">26 y</text><text x="220" y="156" text-anchor="end" font-size="12">Catmull–Clark subdivision</text><line x1="340.77" y1="152" x2="457.69" y2="152" stroke="#1f5fb0" stroke-width="3" stroke-linecap="round"/><circle cx="340.77" cy="152" r="4" fill="#1a1c22"/><circle cx="457.69" cy="152" r="4" fill="#0a7d5a"/><text x="465.69" y="156" font-size="11" fill="#0a7d5a" font-weight="600">19 y</text><text x="220" y="182" text-anchor="end" font-size="12">recursive ray tracing</text><line x1="353.08" y1="178" x2="586.92" y2="178" stroke="#1f5fb0" stroke-width="3" stroke-linecap="round"/><circle cx="353.08" cy="178" r="4" fill="#1a1c22"/><circle cx="586.92" cy="178" r="4" fill="#0a7d5a"/><text x="594.92" y="182" font-size="11" fill="#0a7d5a" font-weight="600">38 y</text><text x="220" y="208" text-anchor="end" font-size="12">mipmaps</text><line x1="371.54" y1="204" x2="451.54" y2="204" stroke="#1f5fb0" stroke-width="3" stroke-linecap="round"/><circle cx="371.54" cy="204" r="4" fill="#1a1c22"/><circle cx="451.54" cy="204" r="4" fill="#0a7d5a"/><text x="459.54" y="208" font-size="11" fill="#0a7d5a" font-weight="600">13 y</text><text x="220" y="234" text-anchor="end" font-size="12">path tracing</text><line x1="390" y1="230" x2="556.15" y2="230" stroke="#1f5fb0" stroke-width="3" stroke-linecap="round"/><circle cx="390" cy="230" r="4" fill="#1a1c22"/><circle cx="556.15" cy="230" r="4" fill="#0a7d5a"/><text x="564.15" y="234" font-size="11" fill="#0a7d5a" font-weight="600">27 y</text><text x="220" y="260" text-anchor="end" font-size="12">programmable shading (REYES)</text><line x1="396.15" y1="256" x2="482.31" y2="256" stroke="#1f5fb0" stroke-width="3" stroke-linecap="round"/><circle cx="396.15" cy="256" r="4" fill="#1a1c22"/><circle cx="482.31" cy="256" r="4" fill="#0a7d5a"/><text x="490.31" y="260" font-size="11" fill="#0a7d5a" font-weight="600">14 y</text><text x="220" y="286" text-anchor="end" font-size="12">radiance fields (NeRF)</text><line x1="599.23" y1="282" x2="617.69" y2="282" stroke="#1f5fb0" stroke-width="3" stroke-linecap="round"/><circle cx="599.23" cy="282" r="4" fill="#1a1c22"/><circle cx="617.69" cy="282" r="4" fill="#0a7d5a"/><text x="625.69" y="286" font-size="11" fill="#0a7d5a" font-weight="600">3 y</text><text x="20" y="22" font-size="12.5" font-weight="600">from the paper to the product: publication year (black) to mainstream arrival (green)</text>
</svg>
