<svg xmlns="http://www.w3.org/2000/svg" viewBox="0 0 640 250" width="640" height="250" font-family="system-ui, -apple-system, Segoe UI, sans-serif" font-size="12" fill="#1a1c22">
<rect width="640" height="250" fill="#ffffff"/>
<text x="20" y="22" font-weight="600" font-size="13">A 20×20 image</text><image href="img-digit-3.png" x="20" y="34" width="120" height="120"/><rect x="56" y="64" width="30" height="30" fill="none" stroke="#c0392b" stroke-width="1.5"/><text x="20" y="175" fill="#5c6270" font-size="11.5">as a 400-vector</text><text x="20" y="190" fill="#5c6270" font-size="11.5">(x₁, x₂, …, x₄₀₀),</text><text x="20" y="205" fill="#5c6270" font-size="11.5">row by row.</text><text x="200" y="22" font-weight="600" font-size="13">The red 5×5 patch, numbers in [0, 1]</text><rect x="200" y="34" width="34" height="34" fill="rgb(29,29,29)" stroke="#999"/><text x="217" y="55" text-anchor="middle" font-size="10.5" fill="#fff">.11</text><rect x="234" y="34" width="34" height="34" fill="rgb(29,29,29)" stroke="#999"/><text x="251" y="55" text-anchor="middle" font-size="10.5" fill="#fff">.11</text><rect x="268" y="34" width="34" height="34" fill="rgb(24,24,24)" stroke="#999"/><text x="285" y="55" text-anchor="middle" font-size="10.5" fill="#fff">.09</text><rect x="302" y="34" width="34" height="34" fill="rgb(0,0,0)" stroke="#999"/><text x="319" y="55" text-anchor="middle" font-size="10.5" fill="#fff">.00</text><rect x="336" y="34" width="34" height="34" fill="rgb(0,0,0)" stroke="#999"/><text x="353" y="55" text-anchor="middle" font-size="10.5" fill="#fff">.00</text><rect x="200" y="68" width="34" height="34" fill="rgb(0,0,0)" stroke="#999"/><text x="217" y="89" text-anchor="middle" font-size="10.5" fill="#fff">.00</text><rect x="234" y="68" width="34" height="34" fill="rgb(0,0,0)" stroke="#999"/><text x="251" y="89" text-anchor="middle" font-size="10.5" fill="#fff">.00</text><rect x="268" y="68" width="34" height="34" fill="rgb(0,0,0)" stroke="#999"/><text x="285" y="89" text-anchor="middle" font-size="10.5" fill="#fff">.00</text><rect x="302" y="68" width="34" height="34" fill="rgb(0,0,0)" stroke="#999"/><text x="319" y="89" text-anchor="middle" font-size="10.5" fill="#fff">.00</text><rect x="336" y="68" width="34" height="34" fill="rgb(0,0,0)" stroke="#999"/><text x="353" y="89" text-anchor="middle" font-size="10.5" fill="#fff">.00</text><rect x="200" y="102" width="34" height="34" fill="rgb(0,0,0)" stroke="#999"/><text x="217" y="123" text-anchor="middle" font-size="10.5" fill="#fff">.00</text><rect x="234" y="102" width="34" height="34" fill="rgb(0,0,0)" stroke="#999"/><text x="251" y="123" text-anchor="middle" font-size="10.5" fill="#fff">.00</text><rect x="268" y="102" width="34" height="34" fill="rgb(0,0,0)" stroke="#999"/><text x="285" y="123" text-anchor="middle" font-size="10.5" fill="#fff">.00</text><rect x="302" y="102" width="34" height="34" fill="rgb(0,0,0)" stroke="#999"/><text x="319" y="123" text-anchor="middle" font-size="10.5" fill="#fff">.00</text><rect x="336" y="102" width="34" height="34" fill="rgb(0,0,0)" stroke="#999"/><text x="353" y="123" text-anchor="middle" font-size="10.5" fill="#fff">.00</text><rect x="200" y="136" width="34" height="34" fill="rgb(0,0,0)" stroke="#999"/><text x="217" y="157" text-anchor="middle" font-size="10.5" fill="#fff">.00</text><rect x="234" y="136" width="34" height="34" fill="rgb(0,0,0)" stroke="#999"/><text x="251" y="157" text-anchor="middle" font-size="10.5" fill="#fff">.00</text><rect x="268" y="136" width="34" height="34" fill="rgb(0,0,0)" stroke="#999"/><text x="285" y="157" text-anchor="middle" font-size="10.5" fill="#fff">.00</text><rect x="302" y="136" width="34" height="34" fill="rgb(0,0,0)" stroke="#999"/><text x="319" y="157" text-anchor="middle" font-size="10.5" fill="#fff">.00</text><rect x="336" y="136" width="34" height="34" fill="rgb(91,91,91)" stroke="#999"/><text x="353" y="157" text-anchor="middle" font-size="10.5" fill="#fff">.36</text><rect x="200" y="170" width="34" height="34" fill="rgb(125,125,125)" stroke="#999"/><text x="217" y="191" text-anchor="middle" font-size="10.5" fill="#fff">.49</text><rect x="234" y="170" width="34" height="34" fill="rgb(193,193,193)" stroke="#999"/><text x="251" y="191" text-anchor="middle" font-size="10.5" fill="#000">.76</text><rect x="268" y="170" width="34" height="34" fill="rgb(193,193,193)" stroke="#999"/><text x="285" y="191" text-anchor="middle" font-size="10.5" fill="#000">.76</text><rect x="302" y="170" width="34" height="34" fill="rgb(193,193,193)" stroke="#999"/><text x="319" y="191" text-anchor="middle" font-size="10.5" fill="#000">.76</text><rect x="336" y="170" width="34" height="34" fill="rgb(253,253,253)" stroke="#999"/><text x="353" y="191" text-anchor="middle" font-size="10.5" fill="#000">.99</text><text x="400" y="60" fill="#5c6270" font-size="11.5">Row by row, the patch alone is the</text><text x="400" y="76" fill="#5c6270" font-size="11.5">25-vector</text><text x="400" y="96" font-family="Menlo, monospace" font-size="10.5">(.11, .11, .09, .00, .00,</text><text x="400" y="111" font-family="Menlo, monospace" font-size="10.5"> .00, .00, .00, .00, .00,</text><text x="400" y="126" font-family="Menlo, monospace" font-size="10.5"> .00, .00, .00, .00, .00,</text><text x="400" y="141" font-family="Menlo, monospace" font-size="10.5"> .00, .00, .00, .00, .36,</text><text x="400" y="156" font-family="Menlo, monospace" font-size="10.5"> .49, .76, .76, .76, .99)</text><text x="400" y="190" fill="#5c6270" font-size="11.5">A point of [0,1]²⁵. The whole image</text><text x="400" y="206" fill="#5c6270" font-size="11.5">is a point of [0,1]⁴⁰⁰.</text><text x="20" y="232" fill="#5c6270" font-size="10.5">MNIST (LeCun, Cortes, Burges) · CC BY-SA 3.0</text>
</svg>
