<svg xmlns="http://www.w3.org/2000/svg" viewBox="0 0 900 324" width="900" height="324" font-family="system-ui, -apple-system, Segoe UI, sans-serif" font-size="12" fill="#1a1c22">
<rect width="900" height="324" fill="#ffffff"/>
<rect x="70" y="12" width="220" height="48" rx="9" fill="#eef4ff" stroke="#1f5fb0" stroke-width="1.6"/><text x="180" y="36" font-size="16" font-weight="600" fill="#1f5fb0" text-anchor="middle">drag the slider</text><rect x="340" y="12" width="220" height="48" rx="9" fill="#eef4ff" stroke="#1f5fb0" stroke-width="1.6"/><text x="450" y="36" font-size="16" font-weight="600" fill="#1f5fb0" text-anchor="middle">type in the box, Enter</text><rect x="610" y="12" width="220" height="48" rx="9" fill="#eef4ff" stroke="#1f5fb0" stroke-width="1.6"/><text x="720" y="36" font-size="16" font-weight="600" fill="#1f5fb0" text-anchor="middle">press =</text><rect x="70" y="200" width="220" height="74" rx="9" fill="#fff3f1" stroke="#c0392b" stroke-width="1.6"/><text x="180" y="224" font-size="16" font-weight="600" fill="#c0392b" text-anchor="middle">slider.value</text><text x="180" y="246" font-size="14" fill="#c0392b" text-anchor="middle">holds 1.5: stale</text><rect x="340" y="200" width="220" height="74" rx="9" fill="#fff3f1" stroke="#c0392b" stroke-width="1.6"/><text x="450" y="224" font-size="16" font-weight="600" fill="#c0392b" text-anchor="middle">box.text</text><text x="450" y="246" font-size="14" fill="#c0392b" text-anchor="middle">holds "1.50": stale</text><rect x="610" y="200" width="220" height="74" rx="9" fill="#e9f5f0" stroke="#0a7d5a" stroke-width="1.6"/><text x="720" y="224" font-size="16" font-weight="600" fill="#0a7d5a" text-anchor="middle">cube scale</text><text x="720" y="246" font-size="14" fill="#0a7d5a" text-anchor="middle">holds 3</text><line x1="180" y1="60" x2="180.0" y2="190.0" stroke="#8a8f9a" stroke-width="2.2"/><polygon points="180,200 175.0,190.0 185.0,190.0" fill="#8a8f9a"/><line x1="206" y1="60" x2="415.6" y2="194.6" stroke="#8a8f9a" stroke-width="2.2"/><polygon points="424,200 412.9,198.8 418.3,190.4" fill="#8a8f9a"/><line x1="232" y1="60" x2="658.5" y2="196.9" stroke="#8a8f9a" stroke-width="2.2"/><polygon points="668,200 657.0,201.7 660.0,192.2" fill="#8a8f9a"/><line x1="424" y1="60" x2="214.4" y2="194.6" stroke="#8a8f9a" stroke-width="2.2"/><polygon points="206,200 211.7,190.4 217.1,198.8" fill="#8a8f9a"/><line x1="450" y1="60" x2="450.0" y2="190.0" stroke="#8a8f9a" stroke-width="2.2"/><polygon points="450,200 445.0,190.0 455.0,190.0" fill="#8a8f9a"/><line x1="476" y1="60" x2="685.6" y2="194.6" stroke="#8a8f9a" stroke-width="2.2"/><polygon points="694,200 682.9,198.8 688.3,190.4" fill="#8a8f9a"/><line x1="668" y1="60" x2="241.5" y2="196.9" stroke="#c0392b" stroke-width="2.2" stroke-dasharray="6 5"/><polygon points="232,200 240.0,192.2 243.0,201.7" fill="#c0392b"/><line x1="694" y1="60" x2="484.4" y2="194.6" stroke="#c0392b" stroke-width="2.2" stroke-dasharray="6 5"/><polygon points="476,200 481.7,190.4 487.1,198.8" fill="#c0392b"/><line x1="720" y1="60" x2="720.0" y2="190.0" stroke="#8a8f9a" stroke-width="2.2"/><polygon points="720,200 715.0,190.0 725.0,190.0" fill="#8a8f9a"/><text x="734" y="112" font-size="14" fill="#0a7d5a">= updates the cube</text><text x="734" y="134" font-size="14" fill="#c0392b">and forgets the</text><text x="734" y="156" font-size="14" fill="#c0392b">other two (dashed)</text><text x="20" y="308" font-size="14">3 ways to change it × 3 places it is stored = 9 updates to keep right; the = handler does 1.</text>
</svg>
