<svg xmlns="http://www.w3.org/2000/svg" viewBox="0 0 640 345" width="640" height="345" font-family="system-ui, -apple-system, Segoe UI, sans-serif" font-size="12" fill="#1a1c22">
<rect width="640" height="345" fill="#ffffff"/>
<text x="20" y="22" font-size="12.5" font-weight="600">pitch X = 30°: three distinct axes</text><line x1="160" y1="210" x2="253.31" y2="191.13" stroke="#8a8f9a" stroke-width="1"/><polygon points="258.21,190.14 253.81,193.58 252.82,188.68" fill="#8a8f9a"/><text x="264.21" y="186.14" fill="#8a8f9a" font-size="12.5" font-weight="600">x</text><line x1="160" y1="210" x2="160" y2="101.31" stroke="#8a8f9a" stroke-width="1"/><polygon points="160,96.31 162.5,101.31 157.5,101.31" fill="#8a8f9a"/><text x="166" y="92.31" fill="#8a8f9a" font-size="12.5" font-weight="600">y</text><line x1="160" y1="210" x2="222.6" y2="237.04" stroke="#8a8f9a" stroke-width="1"/><polygon points="227.19,239.02 221.61,239.34 223.59,234.75" fill="#8a8f9a"/><text x="233.19" y="235.02" fill="#8a8f9a" font-size="12.5" font-weight="600">z</text><line x1="160" y1="210" x2="160" y2="123.62" stroke="#0a7d5a" stroke-width="3"/><polygon points="160,116.62 163.5,123.62 156.5,123.62" fill="#0a7d5a"/><text x="166" y="112.62" fill="#0a7d5a" font-size="12.5" font-weight="600">Y (outer)</text><line x1="160" y1="210" x2="233.82" y2="195.08" stroke="#d98c1f" stroke-width="3"/><polygon points="240.68,193.69 234.51,198.51 233.12,191.65" fill="#d98c1f"/><text x="246.68" y="211.69" fill="#d98c1f" font-size="12.5" font-weight="600">X (middle)</text><line x1="160" y1="210" x2="203.75" y2="271.63" stroke="#6b40d8" stroke-width="3"/><polygon points="207.8,277.34 200.89,273.66 206.6,269.6" fill="#6b40d8"/><text x="213.8" y="293.34" fill="#6b40d8" font-size="12.5" font-weight="600">Z (inner) = (0, -0.5, 0.866)</text><text x="340" y="22" font-size="12.5" font-weight="600">pitch X = 90°: the Z axis lies on the Y axis</text><line x1="480" y1="210" x2="573.31" y2="191.13" stroke="#8a8f9a" stroke-width="1"/><polygon points="578.21,190.14 573.81,193.58 572.82,188.68" fill="#8a8f9a"/><text x="584.21" y="186.14" fill="#8a8f9a" font-size="12.5" font-weight="600">x</text><line x1="480" y1="210" x2="480" y2="101.31" stroke="#8a8f9a" stroke-width="1"/><polygon points="480,96.31 482.5,101.31 477.5,101.31" fill="#8a8f9a"/><text x="486" y="92.31" fill="#8a8f9a" font-size="12.5" font-weight="600">y</text><line x1="480" y1="210" x2="542.6" y2="237.04" stroke="#8a8f9a" stroke-width="1"/><polygon points="547.19,239.02 541.61,239.34 543.59,234.75" fill="#8a8f9a"/><text x="553.19" y="235.02" fill="#8a8f9a" font-size="12.5" font-weight="600">z</text><line x1="480" y1="210" x2="480" y2="123.62" stroke="#0a7d5a" stroke-width="3"/><polygon points="480,116.62 483.5,123.62 476.5,123.62" fill="#0a7d5a"/><text x="486" y="112.62" fill="#0a7d5a" font-size="12.5" font-weight="600">Y (outer)</text><line x1="480" y1="210" x2="553.82" y2="195.08" stroke="#d98c1f" stroke-width="3"/><polygon points="560.68,193.69 554.51,198.51 553.12,191.65" fill="#d98c1f"/><text x="566.68" y="211.69" fill="#d98c1f" font-size="12.5" font-weight="600">X (middle)</text><line x1="480" y1="210" x2="480" y2="296.38" stroke="#6b40d8" stroke-width="3"/><polygon points="480,303.38 476.5,296.38 483.5,296.38" fill="#6b40d8"/><text x="486" y="319.38" fill="#6b40d8" font-size="12.5" font-weight="600">Z (inner) = (0, -1, 0)</text><text x="20" y="330" font-size="11.5" fill="#5c6270">Unity's Z-X-Y order: the X rotation carries the inner Z axis; at X = 90° it lies on the outer Y axis.</text>
</svg>
