<svg xmlns="http://www.w3.org/2000/svg" viewBox="0 0 660 390" width="660" height="390" font-family="system-ui, -apple-system, Segoe UI, sans-serif" font-size="12" fill="#1a1c22">
<rect width="660" height="390" fill="#ffffff"/>
<line x1="97.33" y1="30" x2="97.33" y2="350" stroke="#eceff4"/><line x1="172" y1="30" x2="172" y2="350" stroke="#eceff4"/><line x1="246.67" y1="30" x2="246.67" y2="350" stroke="#eceff4"/><line x1="321.33" y1="30" x2="321.33" y2="350" stroke="#eceff4"/><line x1="396" y1="30" x2="396" y2="350" stroke="#eceff4"/><line x1="470.67" y1="30" x2="470.67" y2="350" stroke="#eceff4"/><line x1="545.33" y1="30" x2="545.33" y2="350" stroke="#eceff4"/><line x1="620" y1="30" x2="620" y2="350" stroke="#eceff4"/><line x1="60" y1="310" x2="620" y2="310" stroke="#eceff4"/><line x1="60" y1="230" x2="620" y2="230" stroke="#eceff4"/><line x1="60" y1="150" x2="620" y2="150" stroke="#eceff4"/><line x1="60" y1="70" x2="620" y2="70" stroke="#eceff4"/><rect x="60" y="30" width="560" height="320" fill="none" stroke="#d7dbe3"/><text x="97.33" y="365" text-anchor="middle" fill="#5c6270" font-size="11">-1</text><text x="172" y="365" text-anchor="middle" fill="#5c6270" font-size="11">0</text><text x="246.67" y="365" text-anchor="middle" fill="#5c6270" font-size="11">1</text><text x="321.33" y="365" text-anchor="middle" fill="#5c6270" font-size="11">2</text><text x="396" y="365" text-anchor="middle" fill="#5c6270" font-size="11">3</text><text x="470.67" y="365" text-anchor="middle" fill="#5c6270" font-size="11">4</text><text x="545.33" y="365" text-anchor="middle" fill="#5c6270" font-size="11">5</text><text x="620" y="365" text-anchor="middle" fill="#5c6270" font-size="11">6</text><text x="54" y="314" text-anchor="end" fill="#5c6270" font-size="11">0</text><text x="54" y="234" text-anchor="end" fill="#5c6270" font-size="11">1</text><text x="54" y="154" text-anchor="end" fill="#5c6270" font-size="11">2</text><text x="54" y="74" text-anchor="end" fill="#5c6270" font-size="11">3</text><line stroke-dasharray="6 4" x1="172" y1="310" x2="239.84" y2="237.31" stroke="#8a8f9a" stroke-width="1.8"/><polygon points="246.67,230 244.23,241.4 235.46,233.22" fill="#8a8f9a"/><line stroke-dasharray="6 4" x1="172" y1="310" x2="462.87" y2="76.26" stroke="#8a8f9a" stroke-width="1.8"/><polygon points="470.67,70 466.63,80.94 459.11,71.59" fill="#8a8f9a"/><text x="200.37" y="254" fill="#8a8f9a" font-size="14" text-anchor="end">position of Pi</text><text x="373.6" y="206" fill="#8a8f9a" font-size="14">position of Pj</text><line x1="246.67" y1="230" x2="462.53" y2="75.81" stroke="#c0392b" stroke-width="2.6"/><polygon points="470.67,70 466.02,80.69 459.04,70.93" fill="#c0392b"/><text x="354.93" y="106" fill="#c0392b" font-size="15" font-weight="600" text-anchor="end">Pj − Pi = (3, 2): tip minus tail</text><circle cx="246.67" cy="230" r="4.5" fill="#1a1c22"/><circle cx="470.67" cy="70" r="4.5" fill="#1a1c22"/><circle cx="172" cy="310" r="3.5" fill="#1a1c22"/><text x="257.87" y="254" font-size="15" font-weight="600">Pi (1, 1)</text><text x="479.63" y="60.4" font-size="15" font-weight="600">Pj (4, 3)</text><text x="177.97" y="335.6" fill="#5c6270" font-size="14">origin</text>
</svg>
