<svg xmlns="http://www.w3.org/2000/svg" viewBox="0 0 640 345" width="640" height="345" font-family="system-ui, -apple-system, Segoe UI, sans-serif" font-size="12" fill="#1a1c22">
<rect width="640" height="345" fill="#ffffff"/>
<defs><marker id="ah" markerWidth="8" markerHeight="8" refX="7" refY="4" orient="auto"><path d="M0,0 L8,4 L0,8 z" fill="#1a1c22"/></marker></defs><rect x="30" y="30" width="90" height="36" rx="6" fill="#8a8f9a" fill-opacity="0.12" stroke="#8a8f9a" stroke-width="1.4"/><text x="75" y="52" text-anchor="middle" font-weight="600" font-size="12" fill="#8a8f9a">object</text><text x="135" y="53" font-size="12.5" font-family="Menlo, monospace">(0.5, 0.5, 0.5, 1)</text><text x="400" y="53" font-size="11.5" fill="#5c6270">authored</text><line x1="75" y1="66" x2="75" y2="80" stroke="#1a1c22" stroke-width="1.3" marker-end="url(#ah)"/><rect x="30" y="82" width="90" height="36" rx="6" fill="#1f5fb0" fill-opacity="0.12" stroke="#1f5fb0" stroke-width="1.4"/><text x="75" y="104" text-anchor="middle" font-weight="600" font-size="12" fill="#1f5fb0">world</text><text x="135" y="105" font-size="12.5" font-family="Menlo, monospace">(0.683, 1, 0.183)</text><text x="400" y="105" font-size="11.5" fill="#5c6270">M = T(0,0.5,0)·R_y(30)</text><line x1="75" y1="118" x2="75" y2="132" stroke="#1a1c22" stroke-width="1.3" marker-end="url(#ah)"/><rect x="30" y="134" width="90" height="36" rx="6" fill="#0a7d5a" fill-opacity="0.12" stroke="#0a7d5a" stroke-width="1.4"/><text x="75" y="156" text-anchor="middle" font-weight="600" font-size="12" fill="#0a7d5a">view</text><text x="135" y="157" font-size="12.5" font-family="Menlo, monospace">(0.455, 0.285, -6.32)</text><text x="400" y="157" font-size="11.5" fill="#5c6270">V (rows u, v, w; −basis·eye)</text><line x1="75" y1="170" x2="75" y2="184" stroke="#1a1c22" stroke-width="1.3" marker-end="url(#ah)"/><rect x="30" y="186" width="90" height="36" rx="6" fill="#6b40d8" fill-opacity="0.12" stroke="#6b40d8" stroke-width="1.4"/><text x="75" y="208" text-anchor="middle" font-weight="600" font-size="12" fill="#6b40d8">clip</text><text x="135" y="209" font-size="12.5" font-family="Menlo, monospace">(0.616, 0.687, 5.84, 6.32)</text><text x="400" y="209" font-size="11.5" fill="#5c6270">P (fov 45, 1.78, 1, 8)</text><line x1="75" y1="222" x2="75" y2="236" stroke="#1a1c22" stroke-width="1.3" marker-end="url(#ah)"/><rect x="30" y="238" width="90" height="36" rx="6" fill="#c0392b" fill-opacity="0.12" stroke="#c0392b" stroke-width="1.4"/><text x="75" y="260" text-anchor="middle" font-weight="600" font-size="12" fill="#c0392b">NDC</text><text x="135" y="261" font-size="12.5" font-family="Menlo, monospace">(0.098, 0.109, 0.924)</text><text x="400" y="261" font-size="11.5" fill="#5c6270">÷ w</text><line x1="75" y1="274" x2="75" y2="288" stroke="#1a1c22" stroke-width="1.3" marker-end="url(#ah)"/><rect x="30" y="290" width="90" height="36" rx="6" fill="#1a1c22" fill-opacity="0.12" stroke="#1a1c22" stroke-width="1.4"/><text x="75" y="312" text-anchor="middle" font-weight="600" font-size="12" fill="#1a1c22">pixel</text><text x="135" y="313" font-size="12.5" font-family="Menlo, monospace">(702.43, 320.86)</text><text x="400" y="313" font-size="11.5" fill="#5c6270">viewport 1280×720</text>
</svg>
